<svg xmlns="http://www.w3.org/2000/svg" width="21.801" height="15.801" viewBox="0 0 21.801 15.801">
  <g id="credit-card-02" transform="translate(-1.1 -4.1)">
    <path id="Path_2877" data-name="Path 2877" d="M22,10H2m9,4H6M2,8.2v7.6a4.969,4.969,0,0,0,.218,2.108,2,2,0,0,0,.874.874A4.968,4.968,0,0,0,5.2,19H18.8a4.968,4.968,0,0,0,2.108-.218,2,2,0,0,0,.874-.874A4.968,4.968,0,0,0,22,15.8V8.2a4.968,4.968,0,0,0-.218-2.108,2,2,0,0,0-.874-.874A4.969,4.969,0,0,0,18.8,5H5.2a4.969,4.969,0,0,0-2.108.218,2,2,0,0,0-.874.874A4.969,4.969,0,0,0,2,8.2Z" fill="none" stroke="#0047ab" stroke-linecap="round" stroke-linejoin="round" stroke-width="1.8"/>
    <path id="Path_2878" data-name="Path 2878" d="M11,14H6" fill="none" stroke="#d4436d" stroke-linecap="round" stroke-linejoin="round" stroke-width="1.8"/>
  </g>
</svg>
