<svg width="566" height="566" viewBox="0 0 566 566" fill="none" xmlns="http://www.w3.org/2000/svg">
<path d="M282.484 6.41172C282.824 6.41153 282.824 6.41153 283.171 6.41133C303.064 6.40536 322.805 8.45833 342.253 12.676C342.456 12.7198 342.658 12.7635 342.866 12.8085C353.865 15.1916 364.652 18.3926 375.27 22.1094C375.562 22.2113 375.562 22.2113 375.86 22.3153C384.207 25.235 392.329 28.6574 400.327 32.4271C400.621 32.5648 400.914 32.7026 401.217 32.8445C408.277 36.1627 415.179 39.7183 421.88 43.7129C422.73 44.2181 423.583 44.7178 424.438 45.216C427.76 47.1568 431.02 49.1695 434.228 51.2938C434.59 51.531 434.951 51.7683 435.313 52.0054C441.57 56.1256 447.703 60.4694 453.523 65.1893C454.385 65.8883 455.258 66.5728 456.134 67.2533C459.239 69.6658 462.203 72.2323 465.114 74.8736C465.721 75.4217 466.333 75.9617 466.95 76.4984C468.34 77.7114 469.713 78.9416 471.077 80.1833C471.364 80.4429 471.652 80.7024 471.948 80.9698C474.682 83.4668 477.301 86.0802 479.921 88.6954C480.109 88.8828 480.297 89.0701 480.491 89.2631C484.12 92.8812 484.12 92.8812 485.668 94.7008C486.473 95.6387 487.328 96.5297 488.175 97.4286C489.58 98.9279 490.972 100.432 492.302 101.998C492.549 102.288 492.797 102.578 493.052 102.877C495.927 106.255 498.72 109.696 501.441 113.2C501.666 113.491 501.666 113.491 501.897 113.788C505.54 118.491 509.013 123.308 512.348 128.234C512.47 128.414 512.592 128.593 512.717 128.778C527.369 150.408 538.705 174.136 546.655 198.999C546.827 199.539 547.001 200.078 547.175 200.617C553.538 220.381 557.325 241.071 558.88 261.765C558.924 262.354 558.971 262.944 559.018 263.533C560.039 276.539 560.043 289.98 558.978 302.983C558.922 303.673 558.868 304.363 558.815 305.054C557.827 317.57 555.951 329.978 553.324 342.253C553.255 342.577 553.255 342.578 553.184 342.908C550.827 353.894 547.601 364.67 543.891 375.27C543.823 375.464 543.755 375.659 543.685 375.86C540.765 384.207 537.343 392.329 533.573 400.327C533.435 400.621 533.297 400.914 533.155 401.217C529.837 408.277 526.282 415.179 522.287 421.88C521.782 422.73 521.282 423.583 520.784 424.438C518.843 427.76 516.83 431.02 514.706 434.228C514.469 434.59 514.232 434.951 513.995 435.313C510.857 440.078 507.558 444.729 504.094 449.262C503.966 449.43 503.839 449.597 503.707 449.77C502.859 450.882 502.004 451.99 501.146 453.095C501.017 453.261 500.888 453.427 500.756 453.599C499.158 455.662 497.53 457.691 495.834 459.674C494.995 460.655 494.178 461.65 493.371 462.657C492.169 464.135 490.89 465.529 489.584 466.914C488.755 467.794 487.942 468.684 487.148 469.596C483.922 473.303 480.443 476.776 476.973 480.252C476.787 480.439 476.6 480.626 476.409 480.819C472.822 484.417 472.822 484.417 470.993 485.973C470.128 486.715 469.308 487.504 468.479 488.286C466.992 489.679 465.466 490.998 463.874 492.272C463.125 492.886 462.412 493.526 461.699 494.181C460.385 495.379 459.011 496.475 457.608 497.563C456.487 498.433 455.393 499.326 454.311 500.243C452.204 502.01 450.004 503.646 447.789 505.273C447.583 505.425 447.377 505.576 447.164 505.732C441.901 509.598 436.504 513.28 430.985 516.77C430.642 516.987 430.642 516.987 430.292 517.209C407.843 531.386 383.569 542.027 299.214 559.22C298.881 559.241 298.881 559.241 298.542 559.263C293.458 559.58 288.369 559.574 283.276 559.57C283.054 559.57 282.832 559.57 282.603 559.57C276.056 559.567 269.527 559.531 263 558.978C262.321 558.921 261.642 558.868 260.963 558.815C248.441 557.822 236.029 555.953 223.747 553.324C223.423 553.255 223.423 553.255 223.092 553.184C212.106 550.827 201.33 547.601 190.73 543.891C190.536 543.823 190.341 543.755 190.14 543.685C181.793 540.765 173.671 537.343 165.673 533.573C165.379 533.435 165.086 533.297 164.783 533.155C157.723 529.837 150.821 526.282 144.12 522.287C143.27 521.782 142.417 521.282 141.562 520.784C138.24 518.843 134.98 516.83 131.772 514.706C131.41 514.469 131.049 514.232 130.687 513.995C124.34 509.815 118.115 505.417 112.249 500.583C111.186 499.708 110.104 498.859 109.018 498.014C106.217 495.828 103.526 493.525 100.896 491.137C100.286 490.585 99.6704 490.041 99.05 489.502C97.6602 488.289 96.2871 487.058 94.9229 485.817C94.6356 485.557 94.3483 485.298 94.0524 485.03C91.3182 482.533 88.6993 479.92 86.0792 477.305C85.8911 477.117 85.703 476.93 85.5092 476.737C81.8795 473.119 81.8795 473.119 80.3319 471.299C79.5275 470.361 78.6722 469.47 77.825 468.571C76.42 467.072 75.0283 465.568 73.6979 464.002C73.4505 463.712 73.2031 463.422 72.9483 463.123C70.0726 459.745 67.2805 456.304 64.5594 452.8C64.4088 452.606 64.2582 452.412 64.1031 452.212C58.9663 445.582 53.9637 438.77 49.6056 431.599C49.1937 430.926 48.7749 430.258 48.355 429.59C44.1267 422.85 40.2382 415.926 36.5542 408.876C36.402 408.585 36.2498 408.295 36.093 407.995C28.2935 393.008 22.1903 377.009 17.3927 360.825C17.3351 360.631 17.2774 360.437 17.218 360.237C11.8404 342.048 8.54062 323.143 7.12048 304.235C7.07577 303.646 7.02877 303.056 6.98172 302.467C5.96115 289.461 5.95742 276.02 7.02183 263.017C7.07807 262.327 7.13179 261.637 7.1854 260.946C8.1728 248.43 10.0487 236.022 12.676 223.747C12.7453 223.423 12.7453 223.423 12.816 223.092C15.1734 212.106 18.3989 201.33 22.1094 190.73C22.2113 190.438 22.2113 190.438 22.3153 190.14C27.3841 175.649 33.7495 161.43 41.4367 148.136C41.9489 147.241 42.4423 146.337 42.9346 145.43C49.3953 133.572 57.2814 122.249 65.7385 111.726C65.8901 111.537 66.0417 111.349 66.1979 111.154C68.2331 108.624 70.2978 106.121 72.4076 103.653C72.8257 103.163 73.2412 102.67 73.6565 102.178C75.371 100.15 77.1335 98.1793 78.9573 96.2496C79.8553 95.2993 80.7339 94.3375 81.5974 93.3557C83.5596 91.1688 85.6563 89.1112 87.736 87.037C88.4563 86.3183 89.175 85.598 89.8936 84.8775C90.3574 84.414 90.8213 83.9505 91.2852 83.4871C91.4969 83.2748 91.7085 83.0626 91.9266 82.8439C93.1074 81.6685 94.3154 80.5425 95.5794 79.4567C96.3948 78.7508 97.1766 78.01 97.963 77.2723C99.3996 75.9344 100.879 74.6727 102.41 73.4434C103.162 72.8257 103.88 72.1828 104.596 71.5238C105.885 70.3502 107.228 69.2711 108.605 68.204C109.737 67.3265 110.849 66.4309 111.953 65.5195C114.429 63.4787 116.991 61.5877 119.606 59.7309C120.265 59.2602 120.92 58.784 121.573 58.3054C128.997 52.8718 136.779 47.937 144.743 43.3344C145.049 43.1575 145.049 43.1575 145.361 42.9771C146.718 42.1961 148.086 41.4345 149.459 40.6813C149.867 40.4575 149.867 40.4575 150.283 40.2291C172.962 27.8175 197.217 18.6015 266.123 6.8217C266.56 6.79437 266.997 6.76625 267.434 6.73728C272.446 6.41035 277.464 6.41305 282.484 6.41172ZM201.638 31.8375C201.319 31.9379 201.001 32.0383 200.673 32.1418C191.858 34.9254 183.228 38.3387 174.811 42.1552C174.624 42.2403 174.436 42.3254 174.242 42.4131C169.765 44.4453 165.332 46.541 161.008 48.8859C160.352 49.2379 159.693 49.5807 159.031 49.9211C148.375 55.4141 138.204 61.9118 128.529 68.9813C128.316 69.1365 128.103 69.2917 127.883 69.4517C122.496 73.3759 117.302 77.4984 112.229 81.8194C111.72 82.2522 111.21 82.6837 110.7 83.1151C108.679 84.8306 106.702 86.5844 104.764 88.394C104.009 89.0986 103.247 89.7959 102.483 90.4913C100.168 92.6064 97.942 94.8066 95.7283 97.0271C95.1028 97.6541 94.4757 98.2796 93.8485 98.9049C93.4427 99.3109 93.037 99.717 92.6314 100.123C92.4477 100.306 92.264 100.489 92.0748 100.678C90.9708 101.788 89.9216 102.932 88.9001 104.118C88.19 104.936 87.4466 105.722 86.7056 106.512C85.3677 107.949 84.106 109.428 82.8768 110.959C82.259 111.711 81.6161 112.429 80.9572 113.145C79.4658 114.784 78.1168 116.521 76.762 118.273C76.3677 118.78 75.9694 119.283 75.5692 119.786C73.4764 122.415 71.476 125.109 69.4961 127.824C69.007 128.494 68.5148 129.161 68.022 129.828C65.4462 133.332 63.0726 136.955 60.7271 140.616C60.5709 140.858 60.4147 141.1 60.2538 141.349C56.4319 147.274 52.9567 153.389 49.6373 159.607C49.2884 160.258 48.936 160.907 48.5807 161.555C42.2422 173.159 37.2872 185.605 33.0167 198.1C32.9539 198.283 32.8911 198.465 32.8264 198.654C25.183 220.917 20.6534 244.454 19.4562 267.966C19.4441 268.194 19.4319 268.422 19.4193 268.657C19.1706 273.396 19.1019 278.127 19.1062 282.871C19.1064 283.238 19.1065 283.605 19.1067 283.983C19.1149 290.256 19.2551 296.497 19.751 302.751C19.779 303.105 19.779 303.105 19.8075 303.466C20.4375 311.333 21.4391 319.134 22.699 326.924C22.7333 327.137 22.7676 327.351 22.803 327.571C25.8622 346.507 31.2535 365.227 38.6177 382.934C38.7546 383.265 38.8915 383.595 39.0325 383.936C42.0101 391.089 45.1906 398.178 48.8859 404.992C49.2379 405.648 49.5807 406.307 49.9211 406.969C51.9117 410.831 54.0768 414.581 56.3052 418.309C56.4884 418.616 56.6716 418.923 56.8604 419.239C62.1393 428.039 67.9995 436.439 74.2875 444.546C74.4296 444.73 74.5717 444.914 74.7182 445.103C76.4276 447.313 78.186 449.472 80.0014 451.595C80.716 452.433 81.4089 453.287 82.0995 454.145C83.2958 455.616 84.5596 457.009 85.8512 458.395C86.4766 459.07 87.0848 459.757 87.689 460.451C90.9168 464.152 94.3845 467.621 97.8524 471.096C98.0533 471.297 98.2541 471.499 98.4611 471.706C101.238 474.508 101.238 474.508 104.166 477.15C104.974 477.837 105.739 478.569 106.512 479.294C107.949 480.632 109.428 481.894 110.959 483.123C111.711 483.741 112.429 484.384 113.145 485.043C114.782 486.533 116.519 487.881 118.269 489.235C118.787 489.638 119.302 490.044 119.817 490.452C128.842 497.602 138.362 504.14 148.28 509.99C148.64 510.203 148.64 510.203 149.008 510.42C152.507 512.488 156.063 514.448 159.641 516.377C160.269 516.717 160.896 517.059 161.522 517.403C170.41 522.258 179.807 526.206 189.26 529.812C189.825 530.027 190.388 530.244 190.952 530.461C200.486 534.12 210.294 537.039 220.209 539.469C220.414 539.519 220.619 539.569 220.83 539.621C234.504 542.952 248.502 545.091 262.53 546.175C262.757 546.193 262.983 546.21 263.216 546.228C269.709 546.72 276.195 546.9 282.705 546.894C283.065 546.894 283.424 546.893 283.794 546.893C309.183 546.859 334.405 543.144 390.77 524.004C391.681 523.594 392.594 523.188 393.509 522.784C402.055 519.001 410.303 514.508 418.309 509.695C418.561 509.544 418.812 509.394 419.071 509.239C422.457 507.203 425.762 505.048 429.051 502.859C429.234 502.737 429.418 502.615 429.607 502.49C432.267 500.719 434.881 498.891 437.471 497.019C437.726 496.835 437.981 496.651 438.244 496.462C441.124 494.378 443.935 492.229 446.678 489.968C447.727 489.104 448.797 488.27 449.871 487.438C453.14 484.892 456.218 482.114 459.285 479.331C459.758 478.907 460.231 478.484 460.704 478.06C463.976 475.108 467.16 472.094 470.272 468.973C470.897 468.346 471.524 467.72 472.151 467.095C472.557 466.689 472.963 466.283 473.369 465.877C473.552 465.694 473.736 465.511 473.925 465.322C475.029 464.212 476.078 463.068 477.1 461.882C477.81 461.064 478.553 460.278 479.294 459.488C480.632 458.051 481.894 456.572 483.123 455.041C483.741 454.289 484.384 453.571 485.043 452.855C486.375 451.391 487.588 449.851 488.8 448.287C489.361 447.564 489.93 446.848 490.507 446.138C492.597 443.566 494.565 440.923 496.485 438.221C496.885 437.659 497.287 437.098 497.691 436.538C499.464 434.075 501.179 431.578 502.859 429.051C502.987 428.86 503.114 428.669 503.245 428.472C507.996 421.326 512.288 413.953 516.357 406.399C516.62 405.911 516.884 405.424 517.149 404.937C519.487 400.646 521.534 396.227 523.55 391.778C523.693 391.462 523.837 391.147 523.985 390.821C526.168 385.996 528.149 381.103 530.035 376.154C530.168 375.811 530.3 375.467 530.436 375.113C539.19 352.271 544.255 327.957 546.157 303.599C546.175 303.368 546.193 303.138 546.211 302.901C546.719 296.313 546.9 289.736 546.894 283.129C546.894 282.762 546.893 282.395 546.893 282.017C546.885 275.744 546.745 269.503 546.249 263.249C546.23 263.013 546.212 262.777 546.193 262.534C545.563 254.667 544.561 246.866 543.301 239.076C543.267 238.863 543.232 238.649 543.197 238.429C539.66 216.534 533 195.002 523.845 174.811C523.717 174.53 523.717 174.53 523.587 174.242C521.555 169.765 519.459 165.332 517.114 161.008C516.762 160.352 516.419 159.693 516.079 159.031C514.088 155.169 511.923 151.419 509.695 147.691C509.512 147.384 509.328 147.077 509.14 146.761C503.861 137.961 498 129.561 491.713 121.454C491.57 121.27 491.428 121.086 491.282 120.897C489.572 118.687 487.814 116.528 485.999 114.405C485.284 113.567 484.591 112.713 483.901 111.855C482.704 110.384 481.44 108.991 480.149 107.605C479.523 106.93 478.915 106.243 478.311 105.549C475.083 101.848 471.616 98.3786 468.148 94.9045C467.947 94.7029 467.746 94.5013 467.539 94.2935C464.766 91.4965 464.766 91.4965 461.843 88.8593C460.981 88.1231 460.165 87.3361 459.341 86.5582C457.882 85.193 456.391 83.8962 454.83 82.6476C454.015 81.9811 453.223 81.2942 452.433 80.598C450.303 78.7223 448.104 76.9719 445.837 75.2652C444.965 74.6083 444.102 73.9414 443.246 73.2638C440.533 71.118 437.761 69.1097 434.891 67.178C433.921 66.5243 432.973 65.8491 432.036 65.149C425.753 60.5313 418.911 56.5783 412.119 52.7677C411.889 52.6382 411.659 52.5086 411.422 52.3752C405.861 49.243 400.221 46.3184 394.431 43.6292C393.947 43.4039 393.947 43.4039 393.452 43.1742C385.401 39.4524 377.161 36.2246 368.784 33.3115C368.493 33.2084 368.201 33.1054 367.901 32.9993C349.937 26.6674 331.089 22.7512 312.184 20.6354C311.983 20.6125 311.781 20.5896 311.573 20.5659C308.734 20.2437 305.894 19.9735 303.046 19.751C302.85 19.7357 302.654 19.7203 302.452 19.7044C275.558 17.6242 248.199 19.8801 201.638 31.8375Z" fill="#080808"/>
<path d="M160.124 105.129C160.562 105.128 161 105.127 161.438 105.125C162.635 105.122 163.831 105.124 165.028 105.127C166.333 105.129 167.637 105.126 168.942 105.124C171.226 105.121 173.51 105.121 175.794 105.123C179.191 105.127 182.587 105.125 185.984 105.122C192.051 105.118 198.117 105.118 204.184 105.121C209.493 105.123 214.802 105.123 220.112 105.122C220.464 105.122 220.816 105.122 221.179 105.122C222.609 105.122 224.039 105.122 225.468 105.121C238.88 105.119 252.291 105.121 265.703 105.126C277.617 105.13 289.531 105.13 301.446 105.125C314.833 105.121 328.22 105.119 341.607 105.121C343.034 105.122 344.461 105.122 345.888 105.122C346.24 105.122 346.591 105.122 346.953 105.123C352.259 105.124 357.565 105.122 362.87 105.12C368.903 105.118 374.937 105.118 380.97 105.123C384.346 105.126 387.722 105.126 391.098 105.122C393.354 105.12 395.609 105.122 397.865 105.126C399.15 105.128 400.434 105.128 401.719 105.125C402.89 105.122 404.06 105.124 405.231 105.128C405.65 105.129 406.069 105.128 406.488 105.126C412.059 105.098 416.844 106.356 420.963 110.252C425.317 114.855 426.111 120.035 426.085 126.104C426.086 126.661 426.087 127.219 426.089 127.776C426.093 129.306 426.091 130.835 426.088 132.365C426.085 134.03 426.088 135.695 426.09 137.36C426.094 140.277 426.094 143.194 426.091 146.111C426.089 149.24 426.088 152.37 426.09 155.499C426.09 155.697 426.09 155.895 426.091 156.098C426.091 156.904 426.091 157.71 426.092 158.516C426.097 166.018 426.097 173.519 426.095 181.021C426.094 181.243 426.094 181.465 426.094 181.694C426.094 181.916 426.094 182.139 426.094 182.368C426.092 189.148 426.091 195.928 426.092 202.708C426.092 203.162 426.092 203.616 426.093 204.07C426.093 205.895 426.093 207.72 426.093 209.545C426.094 214.646 426.095 219.747 426.095 224.848C426.095 225.08 426.095 225.313 426.095 225.552C426.095 232.953 426.094 240.354 426.092 247.756C426.092 247.996 426.092 248.236 426.092 248.483C426.091 252.381 426.09 256.279 426.089 260.177C426.085 275.637 426.085 291.097 426.089 306.556C426.09 310.452 426.091 314.348 426.092 318.244C426.092 318.484 426.093 318.724 426.093 318.971C426.095 326.365 426.095 333.758 426.095 341.152C426.095 341.5 426.095 341.5 426.095 341.855C426.095 346.951 426.094 352.046 426.093 357.142C426.093 358.965 426.093 360.788 426.092 362.611C426.092 363.065 426.092 363.518 426.092 363.972C426.091 370.75 426.092 377.528 426.094 384.306C426.094 384.639 426.094 384.639 426.095 384.979C426.095 385.201 426.095 385.423 426.095 385.651C426.097 393.131 426.096 400.611 426.092 408.091C426.091 408.895 426.091 409.698 426.09 410.501C426.09 410.698 426.09 410.896 426.09 411.099C426.088 414.409 426.09 417.719 426.092 421.03C426.094 423.909 426.093 426.789 426.089 429.668C426.087 431.31 426.086 432.951 426.089 434.593C426.092 436.086 426.091 437.58 426.087 439.074C426.086 439.611 426.086 440.147 426.089 440.684C426.112 446.642 424.981 451.634 420.668 456.043C416.242 459.834 411.619 460.902 405.876 460.871C405.438 460.872 405 460.873 404.562 460.875C403.365 460.878 402.169 460.876 400.972 460.873C399.667 460.871 398.363 460.874 397.058 460.876C394.774 460.879 392.49 460.879 390.206 460.877C386.809 460.873 383.413 460.875 380.016 460.878C373.949 460.882 367.883 460.882 361.816 460.88C356.507 460.877 351.198 460.877 345.888 460.878C345.36 460.878 345.36 460.878 344.821 460.878C343.391 460.878 341.961 460.879 340.532 460.879C327.12 460.882 313.709 460.879 300.297 460.874C288.383 460.87 276.469 460.87 264.554 460.875C251.167 460.879 237.78 460.881 224.393 460.879C222.966 460.878 221.539 460.878 220.112 460.878C219.76 460.878 219.409 460.878 219.047 460.878C213.741 460.877 208.435 460.878 203.13 460.88C197.097 460.882 191.064 460.882 185.03 460.877C181.654 460.874 178.278 460.874 174.902 460.878C172.646 460.88 170.391 460.878 168.135 460.875C166.85 460.872 165.566 460.872 164.281 460.875C163.11 460.878 161.94 460.876 160.769 460.872C160.35 460.871 159.931 460.872 159.512 460.874C154.035 460.902 149.04 459.659 145.014 455.785C140.765 451.086 139.889 446.006 139.915 439.896C139.914 439.339 139.913 438.781 139.911 438.224C139.907 436.694 139.909 435.165 139.912 433.635C139.915 431.97 139.912 430.305 139.91 428.641C139.906 425.723 139.906 422.806 139.909 419.889C139.911 416.76 139.912 413.63 139.91 410.501C139.91 410.303 139.91 410.106 139.909 409.902C139.909 409.096 139.909 408.29 139.908 407.484C139.903 399.982 139.903 392.481 139.906 384.979C139.906 384.757 139.906 384.535 139.906 384.306C139.906 384.084 139.906 383.861 139.906 383.632C139.908 376.852 139.909 370.072 139.908 363.292C139.908 362.838 139.908 362.384 139.907 361.93C139.907 360.105 139.907 358.28 139.907 356.455C139.906 351.354 139.905 346.253 139.905 341.152C139.905 340.92 139.905 340.687 139.905 340.448C139.905 333.047 139.906 325.646 139.908 318.244C139.908 318.004 139.908 317.764 139.908 317.517C139.909 313.619 139.91 309.721 139.911 305.823C139.915 290.363 139.915 274.904 139.911 259.444C139.91 255.548 139.909 251.652 139.908 247.756C139.908 247.516 139.907 247.276 139.907 247.029C139.905 239.635 139.905 232.242 139.905 224.848C139.905 224.616 139.905 224.384 139.905 224.145C139.905 219.049 139.906 213.954 139.907 208.858C139.907 207.035 139.907 205.212 139.908 203.389C139.908 202.935 139.908 202.482 139.908 202.028C139.909 195.25 139.908 188.472 139.906 181.694C139.906 181.472 139.906 181.25 139.906 181.021C139.905 180.688 139.905 180.688 139.905 180.349C139.903 172.869 139.904 165.389 139.908 157.909C139.909 157.106 139.909 156.302 139.91 155.499C139.91 155.302 139.91 155.104 139.91 154.901C139.912 151.591 139.91 148.281 139.908 144.971C139.906 142.091 139.907 139.211 139.911 136.332C139.913 134.69 139.914 133.049 139.911 131.407C139.908 129.914 139.909 128.42 139.913 126.926C139.914 126.389 139.914 125.853 139.911 125.317C139.888 119.358 141.019 114.366 145.332 109.957C149.758 106.166 154.381 105.098 160.124 105.129ZM151.523 117.327C150.1 119.184 149.665 120.849 149.68 123.16C149.679 123.388 149.678 123.615 149.677 123.849C149.675 124.612 149.676 125.376 149.678 126.139C149.678 126.693 149.676 127.248 149.675 127.802C149.672 129.333 149.673 130.863 149.675 132.394C149.676 134.057 149.673 135.719 149.671 137.382C149.668 140.298 149.667 143.214 149.668 146.13C149.669 149.26 149.668 152.389 149.666 155.519C149.666 155.717 149.666 155.914 149.665 156.118C149.665 156.922 149.664 157.727 149.664 158.532C149.658 166.929 149.656 175.327 149.656 183.724C149.656 184.628 149.656 185.532 149.656 186.436C149.656 186.661 149.656 186.885 149.656 187.116C149.655 192.086 149.654 197.056 149.653 202.025C149.652 204.071 149.651 206.117 149.651 208.163C149.651 208.389 149.651 208.615 149.651 208.848C149.647 221.802 149.644 234.757 149.645 247.711C149.645 248.196 149.645 248.681 149.645 249.166C149.645 251.355 149.645 253.545 149.645 255.734C149.645 256.71 149.645 257.687 149.645 258.663C149.645 259.152 149.645 259.64 149.645 260.129C149.645 275.582 149.641 291.036 149.633 306.489C149.631 310.383 149.629 314.276 149.627 318.17C149.627 318.41 149.627 318.65 149.626 318.897C149.623 326.284 149.621 333.672 149.62 341.059C149.62 341.291 149.62 341.523 149.62 341.762C149.619 346.852 149.619 351.943 149.619 357.033C149.619 358.855 149.619 360.676 149.619 362.497C149.619 362.95 149.619 363.403 149.619 363.857C149.619 371.08 149.616 378.304 149.611 385.527C149.606 392.802 149.605 400.076 149.608 407.35C149.609 408.355 149.61 409.36 149.61 410.365C149.61 410.562 149.61 410.759 149.61 410.962C149.612 414.273 149.609 417.583 149.604 420.894C149.601 423.772 149.601 426.65 149.606 429.528C149.608 431.169 149.608 432.811 149.604 434.452C149.599 435.945 149.6 437.437 149.606 438.93C149.607 439.467 149.606 440.004 149.603 440.542C149.538 444.328 149.538 444.328 150.933 447.789C151.18 448.19 151.18 448.19 151.431 448.599C153.1 450.223 155.079 451.068 157.39 451.069C157.756 451.07 158.123 451.071 158.5 451.072C158.91 451.072 159.32 451.071 159.729 451.071C160.164 451.071 160.598 451.072 161.033 451.073C162.236 451.075 163.438 451.075 164.641 451.075C165.946 451.075 167.251 451.076 168.556 451.078C171.149 451.081 173.741 451.082 176.334 451.083C179.437 451.083 182.541 451.086 185.645 451.089C193.147 451.095 200.65 451.098 208.152 451.1C211.7 451.102 215.248 451.103 218.795 451.105C230.934 451.11 243.073 451.114 255.211 451.117C255.974 451.117 256.736 451.117 257.498 451.117C257.877 451.117 258.255 451.117 258.644 451.117C260.56 451.118 262.475 451.118 264.391 451.118C264.771 451.118 265.151 451.118 265.542 451.119C277.871 451.121 290.2 451.128 302.529 451.137C315.557 451.147 328.586 451.153 341.614 451.154C343.043 451.154 344.473 451.155 345.902 451.155C346.254 451.155 346.606 451.155 346.969 451.155C352.64 451.155 358.311 451.16 363.982 451.166C369.679 451.172 375.376 451.174 381.074 451.171C384.461 451.169 387.847 451.171 391.234 451.178C393.495 451.181 395.756 451.181 398.017 451.177C399.306 451.175 400.596 451.175 401.885 451.18C403.058 451.185 404.231 451.184 405.403 451.179C405.825 451.178 406.247 451.179 406.668 451.182C409.499 451.203 411.414 450.827 413.814 449.355C415.597 447.521 416.291 445.457 416.283 442.949C416.284 442.723 416.284 442.497 416.285 442.264C416.286 441.499 416.285 440.734 416.285 439.969C416.285 439.416 416.286 438.862 416.286 438.309C416.288 436.777 416.288 435.244 416.287 433.712C416.287 432.05 416.289 430.387 416.29 428.725C416.292 425.422 416.293 422.119 416.293 418.816C416.293 416.069 416.294 413.323 416.295 410.576C416.295 410.378 416.296 410.181 416.296 409.977C416.296 409.172 416.296 408.368 416.297 407.563C416.302 398.03 416.304 388.497 416.305 378.963C416.306 374.218 416.307 369.472 416.308 364.726C416.312 349.508 416.315 334.291 416.316 319.073C416.316 318.346 416.316 317.618 416.316 316.891C416.316 315.431 416.316 313.972 416.316 312.513C416.316 310.805 416.317 309.096 416.317 307.388C416.317 306.899 416.317 306.41 416.317 305.921C416.318 290.216 416.322 274.51 416.329 258.804C416.334 247.521 416.339 236.238 416.34 224.954C416.34 224.722 416.34 224.49 416.34 224.251C416.341 219.159 416.341 214.067 416.341 208.975C416.341 207.153 416.341 205.331 416.341 203.51C416.341 203.056 416.341 202.603 416.341 202.15C416.342 194.923 416.344 187.695 416.349 180.468C416.353 173.19 416.355 165.912 416.352 158.634C416.352 157.629 416.352 156.623 416.351 155.618C416.351 155.421 416.351 155.224 416.351 155.021C416.35 151.708 416.353 148.395 416.356 145.082C416.359 142.202 416.359 139.323 416.356 136.444C416.354 134.801 416.354 133.159 416.358 131.516C416.361 130.023 416.361 128.53 416.357 127.037C416.356 126.499 416.357 125.961 416.359 125.423C416.362 124.694 416.36 123.965 416.356 123.236C416.358 123.028 416.36 122.82 416.363 122.606C416.337 120.238 415.56 118.41 413.888 116.738C412.24 115.544 410.964 114.932 408.903 114.931C408.536 114.93 408.169 114.929 407.791 114.928C407.381 114.929 406.97 114.929 406.56 114.93C406.125 114.93 405.69 114.929 405.255 114.928C404.05 114.927 402.846 114.927 401.642 114.927C400.335 114.927 399.028 114.926 397.721 114.925C395.125 114.922 392.529 114.922 389.933 114.922C386.825 114.921 383.717 114.919 380.61 114.917C373.097 114.913 365.585 114.911 358.072 114.91C354.52 114.909 350.967 114.908 347.415 114.907C335.261 114.903 323.107 114.9 310.953 114.899C310.189 114.899 309.426 114.899 308.663 114.899C307.898 114.898 307.133 114.898 306.367 114.898C304.832 114.898 303.297 114.898 301.762 114.898C301.191 114.898 301.191 114.898 300.609 114.898C288.263 114.897 275.918 114.892 263.573 114.885C250.528 114.878 237.483 114.874 224.438 114.874C223.007 114.874 221.576 114.873 220.144 114.873C219.616 114.873 219.616 114.873 219.077 114.873C213.398 114.873 207.719 114.87 202.04 114.865C196.336 114.861 190.631 114.86 184.927 114.863C181.535 114.864 178.143 114.863 174.752 114.858C172.488 114.855 170.224 114.856 167.961 114.859C166.67 114.86 165.379 114.86 164.088 114.857C162.914 114.853 161.74 114.854 160.565 114.858C160.143 114.859 159.721 114.858 159.298 114.856C156.143 114.839 153.879 115.024 151.523 117.327Z" fill="#0C0C0C"/>
<path d="M193.289 392.279C193.908 392.278 194.528 392.277 195.148 392.275C196.441 392.273 197.735 392.273 199.029 392.275C200.677 392.276 202.325 392.271 203.973 392.265C205.251 392.26 206.529 392.26 207.807 392.261C208.414 392.261 209.022 392.259 209.629 392.256C217.125 392.224 223.555 393.759 229.095 399.144C234.014 404.171 235.386 410.444 235.382 417.211C235.384 417.688 235.386 418.166 235.389 418.643C235.393 419.636 235.393 420.628 235.391 421.621C235.39 422.888 235.399 424.154 235.411 425.421C235.418 426.403 235.419 427.386 235.418 428.369C235.419 428.836 235.421 429.303 235.427 429.77C235.471 434.14 235.471 434.14 234.174 435.891C232.573 437.478 230.55 437.515 228.437 437.512C228.195 437.513 227.953 437.514 227.703 437.515C226.89 437.517 226.077 437.518 225.264 437.518C224.681 437.52 224.099 437.521 223.516 437.523C221.933 437.527 220.349 437.529 218.765 437.53C217.776 437.531 216.786 437.532 215.796 437.533C212.7 437.537 209.603 437.54 206.506 437.541C202.932 437.543 199.359 437.548 195.785 437.556C193.022 437.563 190.259 437.566 187.496 437.566C185.846 437.566 184.196 437.568 182.546 437.573C180.994 437.578 179.441 437.579 177.888 437.576C177.32 437.576 176.751 437.577 176.182 437.58C175.403 437.584 174.625 437.582 173.846 437.579C173.623 437.582 173.399 437.584 173.169 437.586C171.134 437.568 169.282 437.191 167.755 435.794C166.319 433.489 166.471 431.021 166.479 428.386C166.479 427.991 166.478 427.595 166.477 427.199C166.476 426.371 166.478 425.543 166.48 424.716C166.484 423.668 166.482 422.62 166.478 421.572C166.476 420.755 166.477 419.937 166.478 419.119C166.479 418.549 166.477 417.979 166.475 417.409C166.515 409.826 168.511 403.688 173.927 398.264C174.099 398.088 174.271 397.912 174.449 397.732C179.716 392.797 186.467 392.274 193.289 392.279ZM178.939 406.813C176.752 409.824 176.144 412.871 176.199 416.544C176.2 416.867 176.202 417.189 176.203 417.522C176.208 418.54 176.219 419.558 176.23 420.576C176.235 421.271 176.239 421.966 176.242 422.662C176.252 424.355 176.267 426.049 176.285 427.743C182.699 427.75 189.113 427.755 195.527 427.758C198.504 427.76 201.482 427.762 204.46 427.765C207.054 427.768 209.649 427.77 212.243 427.77C213.618 427.771 214.993 427.772 216.367 427.774C217.66 427.776 218.952 427.777 220.244 427.776C220.72 427.776 221.196 427.777 221.671 427.778C222.318 427.779 222.965 427.779 223.611 427.778C224.155 427.779 224.155 427.779 224.711 427.779C225.49 427.835 225.49 427.835 225.81 427.448C225.842 427.054 225.854 426.658 225.858 426.262C225.861 426.01 225.864 425.758 225.866 425.498C225.868 425.222 225.869 424.946 225.87 424.662C225.872 424.378 225.874 424.094 225.875 423.801C225.878 423.196 225.88 422.59 225.881 421.985C225.884 421.072 225.893 420.159 225.903 419.246C225.93 414.289 225.731 409.716 222.242 405.826C219.432 403.165 216.224 402.004 212.413 402.015C212.141 402.013 211.869 402.012 211.59 402.01C210.696 402.006 209.803 402.007 208.909 402.007C208.285 402.006 207.66 402.005 207.036 402.003C205.728 402.001 204.421 402.001 203.113 402.003C201.443 402.005 199.773 402 198.103 401.993C196.813 401.988 195.524 401.988 194.234 401.989C193.619 401.989 193.003 401.987 192.388 401.984C191.524 401.981 190.661 401.983 189.798 401.986C189.547 401.984 189.296 401.982 189.038 401.979C185.089 402.013 181.434 403.73 178.939 406.813Z" fill="#0B0B0B"/>
<path d="M193.37 283.501C193.968 283.5 194.566 283.499 195.164 283.497C196.414 283.495 197.664 283.495 198.914 283.497C200.503 283.498 202.092 283.493 203.681 283.486C204.915 283.482 206.15 283.482 207.385 283.483C207.97 283.483 208.555 283.481 209.141 283.478C216.624 283.444 223.282 284.82 228.897 290.176C233.847 295.371 235.439 301.562 235.411 308.519C235.412 308.995 235.414 309.472 235.416 309.948C235.419 310.935 235.418 311.922 235.414 312.909C235.409 314.169 235.416 315.429 235.426 316.688C235.432 317.667 235.432 318.646 235.43 319.625C235.429 320.09 235.431 320.555 235.436 321.019C235.473 325.756 235.473 325.756 233.77 327.514C232.171 328.722 230.655 328.736 228.708 328.734C228.463 328.735 228.218 328.736 227.966 328.737C227.144 328.739 226.322 328.74 225.5 328.74C224.911 328.742 224.322 328.743 223.733 328.745C222.133 328.749 220.532 328.75 218.931 328.752C217.931 328.753 216.931 328.754 215.931 328.755C212.802 328.759 209.673 328.762 206.544 328.763C202.932 328.764 199.32 328.77 195.708 328.778C192.916 328.785 190.124 328.788 187.332 328.788C185.665 328.788 183.997 328.79 182.33 328.795C180.761 328.8 179.192 328.801 177.623 328.798C177.048 328.798 176.473 328.799 175.898 328.802C175.111 328.806 174.325 328.804 173.538 328.801C173.198 328.805 173.198 328.805 172.852 328.808C170.878 328.79 169.242 328.402 167.773 326.998C166.293 324.733 166.471 322.422 166.479 319.793C166.479 319.382 166.478 318.972 166.477 318.562C166.476 317.703 166.478 316.845 166.48 315.986C166.484 314.898 166.482 313.81 166.478 312.721C166.476 311.874 166.477 311.026 166.478 310.178C166.479 309.586 166.477 308.993 166.475 308.401C166.514 300.676 168.694 294.719 174.2 289.213C179.616 284.155 186.342 283.495 193.37 283.501ZM178.8 298.28C174.492 304.379 176.285 311.564 176.285 318.965C192.629 318.965 208.972 318.965 225.81 318.965C226.704 307.068 226.704 307.068 221.947 296.779C218.036 293.183 213.548 293.138 208.527 293.161C207.913 293.16 207.299 293.159 206.685 293.158C205.405 293.156 204.124 293.158 202.843 293.164C201.21 293.171 199.577 293.167 197.944 293.16C196.678 293.156 195.413 293.157 194.147 293.16C193.545 293.161 192.943 293.16 192.341 293.157C186.926 293.138 182.437 293.846 178.8 298.28Z" fill="#0B0B0B"/>
<path d="M190.694 174.769C191.064 174.767 191.064 174.767 191.442 174.766C192.25 174.763 193.058 174.762 193.866 174.762C194.434 174.761 195.002 174.76 195.57 174.759C196.758 174.757 197.946 174.757 199.134 174.757C200.646 174.757 202.158 174.753 203.67 174.748C204.843 174.744 206.016 174.744 207.188 174.744C207.745 174.744 208.302 174.742 208.859 174.74C216.88 174.71 216.88 174.71 220.578 176.212C220.874 176.328 220.874 176.328 221.176 176.446C226.608 178.643 230.958 182.697 233.432 188.03C235.019 191.842 235.339 195.478 235.343 199.55C235.345 200.03 235.347 200.51 235.349 200.99C235.352 201.99 235.353 202.991 235.353 203.992C235.353 205.27 235.361 206.549 235.371 207.828C235.378 208.817 235.379 209.806 235.379 210.795C235.379 211.266 235.382 211.738 235.386 212.209C235.392 212.869 235.391 213.528 235.387 214.187C235.388 214.561 235.389 214.935 235.39 215.321C235.158 216.997 234.52 218.088 233.162 219.141C231.75 219.922 230.587 219.958 229.014 219.956C228.643 219.957 228.643 219.957 228.264 219.959C227.433 219.961 226.601 219.962 225.769 219.962C225.174 219.963 224.579 219.965 223.984 219.967C222.365 219.97 220.746 219.972 219.127 219.974C218.116 219.974 217.105 219.976 216.094 219.977C212.931 219.981 209.768 219.984 206.605 219.985C202.952 219.986 199.3 219.992 195.647 220C192.825 220.006 190.002 220.009 187.18 220.01C185.494 220.01 183.808 220.012 182.122 220.017C180.536 220.022 178.949 220.023 177.363 220.02C176.781 220.02 176.199 220.021 175.617 220.024C174.822 220.028 174.027 220.026 173.232 220.023C173.002 220.025 172.773 220.028 172.536 220.03C170.596 220.013 169.205 219.614 167.792 218.201C166.763 216.703 166.484 215.4 166.481 213.598C166.479 213.228 166.477 212.858 166.475 212.477C166.476 212.076 166.478 211.675 166.479 211.274C166.479 210.856 166.478 210.439 166.477 210.022C166.476 209.148 166.478 208.274 166.48 207.399C166.484 206.291 166.482 205.182 166.478 204.074C166.476 203.211 166.477 202.349 166.478 201.486C166.479 201.078 166.478 200.67 166.477 200.262C166.457 192.885 168.212 186.62 173.408 181.198C178.159 176.641 184.224 174.765 190.694 174.769ZM178.81 189.514C174.387 195.405 176.285 203.259 176.285 210.186C192.629 210.186 208.972 210.186 225.81 210.186C226.731 198.355 226.731 198.355 222.089 188.261C219.192 185.548 215.781 184.45 211.885 184.454C211.623 184.452 211.362 184.45 211.092 184.448C210.233 184.442 209.374 184.441 208.516 184.441C207.913 184.439 207.311 184.437 206.709 184.435C205.449 184.431 204.188 184.43 202.928 184.43C201.321 184.43 199.715 184.422 198.109 184.412C196.865 184.406 195.622 184.404 194.378 184.405C193.786 184.404 193.195 184.401 192.603 184.397C187.034 184.358 182.633 185.028 178.81 189.514Z" fill="#0A0A0A"/>
<path d="M264.258 189.806C264.483 189.806 264.709 189.805 264.942 189.804C265.705 189.802 266.467 189.802 267.23 189.802C267.78 189.801 268.33 189.8 268.88 189.799C270.396 189.796 271.912 189.795 273.428 189.794C275.061 189.793 276.694 189.79 278.327 189.788C282.274 189.782 286.22 189.779 290.166 189.776C292.024 189.775 293.881 189.774 295.738 189.772C301.911 189.767 308.083 189.763 314.255 189.761C314.654 189.76 315.053 189.76 315.453 189.76C315.65 189.76 315.848 189.76 316.052 189.76C317.056 189.76 318.059 189.759 319.062 189.759C319.36 189.759 319.36 189.759 319.665 189.759C326.119 189.756 332.574 189.749 339.029 189.74C345.852 189.73 352.675 189.724 359.498 189.723C363.217 189.722 366.937 189.72 370.657 189.712C373.824 189.706 376.992 189.703 380.159 189.706C381.776 189.708 383.392 189.707 385.008 189.701C386.488 189.696 387.968 189.696 389.447 189.701C389.983 189.702 390.518 189.7 391.054 189.697C391.782 189.692 392.509 189.695 393.237 189.7C393.445 189.697 393.653 189.694 393.867 189.691C395.448 189.713 396.666 190.164 397.969 191.025C399.061 192.257 399.517 193.507 399.443 195.152C399.191 196.463 398.729 197.461 397.729 198.358C396.11 199.437 394.656 199.661 392.743 199.649C392.518 199.65 392.293 199.651 392.061 199.652C391.307 199.654 390.553 199.653 389.799 199.651C389.253 199.652 388.707 199.653 388.162 199.654C386.661 199.657 385.16 199.657 383.66 199.655C382.042 199.655 380.424 199.657 378.806 199.66C375.635 199.663 372.465 199.664 369.295 199.663C366.719 199.663 364.142 199.663 361.566 199.664C361.199 199.665 360.833 199.665 360.455 199.665C359.711 199.665 358.967 199.666 358.222 199.666C353.223 199.668 348.224 199.669 343.224 199.668C342.931 199.668 342.931 199.668 342.632 199.668C341.641 199.668 340.65 199.668 339.659 199.667C339.462 199.667 339.266 199.667 339.063 199.667C338.665 199.667 338.267 199.667 337.869 199.667C331.676 199.665 325.484 199.668 319.291 199.673C312.334 199.679 305.376 199.682 298.419 199.681C294.735 199.681 291.051 199.681 287.367 199.685C284.231 199.689 281.095 199.689 277.959 199.686C276.359 199.684 274.759 199.684 273.158 199.687C271.693 199.691 270.228 199.69 268.764 199.685C268.234 199.685 267.703 199.685 267.173 199.688C266.453 199.691 265.732 199.688 265.012 199.684C264.806 199.687 264.6 199.689 264.389 199.691C262.774 199.673 261.071 199.384 259.838 198.272C258.603 196.842 258.428 195.647 258.449 193.827C258.613 192.373 259.421 191.582 260.467 190.638C261.706 189.78 262.807 189.803 264.258 189.806Z" fill="#0D0D0D"/>
<path d="M264.865 366.387C265.089 366.387 265.313 366.386 265.544 366.385C266.3 366.384 267.055 366.384 267.81 366.385C268.356 366.384 268.901 366.383 269.446 366.382C270.948 366.38 272.45 366.379 273.952 366.379C275.57 366.378 277.189 366.376 278.807 366.374C282.348 366.37 285.888 366.368 289.429 366.367C291.639 366.366 293.849 366.365 296.059 366.364C302.175 366.36 308.291 366.357 314.407 366.356C314.803 366.356 315.198 366.356 315.594 366.356C315.99 366.356 316.387 366.356 316.783 366.356C317.579 366.356 318.374 366.355 319.17 366.355C319.367 366.355 319.564 366.355 319.767 366.355C326.163 366.354 332.558 366.349 338.954 366.343C345.715 366.335 352.476 366.331 359.237 366.331C362.923 366.331 366.609 366.329 370.295 366.324C373.433 366.319 376.571 366.317 379.709 366.32C381.311 366.321 382.912 366.321 384.514 366.317C385.98 366.313 387.446 366.313 388.912 366.317C389.442 366.317 389.973 366.317 390.503 366.314C391.225 366.311 391.946 366.313 392.667 366.316C392.976 366.313 392.976 366.313 393.29 366.31C395.23 366.33 396.796 366.778 398.227 368.084C399.09 369.455 399.587 370.727 399.352 372.365C398.861 373.958 397.872 374.955 396.495 375.859C395.45 376.208 394.508 376.196 393.421 376.193C393.195 376.194 392.969 376.194 392.736 376.195C391.973 376.196 391.21 376.196 390.446 376.196C389.896 376.196 389.346 376.197 388.795 376.198C387.278 376.201 385.761 376.201 384.244 376.201C382.609 376.202 380.975 376.204 379.341 376.206C375.765 376.21 372.189 376.212 368.613 376.213C366.382 376.214 364.15 376.215 361.919 376.217C355.744 376.22 349.569 376.223 343.395 376.224C342.995 376.224 342.596 376.224 342.197 376.224C341.796 376.224 341.396 376.225 340.996 376.225C340.192 376.225 339.389 376.225 338.586 376.225C338.387 376.225 338.188 376.225 337.983 376.225C331.524 376.226 325.065 376.231 318.607 376.238C311.78 376.245 304.954 376.249 298.127 376.249C294.405 376.25 290.683 376.251 286.961 376.257C283.792 376.261 280.623 376.263 277.454 376.26C275.837 376.259 274.219 376.259 272.601 376.264C271.122 376.267 269.642 376.267 268.162 376.263C267.625 376.263 267.089 376.264 266.553 376.266C265.825 376.27 265.098 376.267 264.371 376.264C264.161 376.266 263.952 376.268 263.736 376.271C262.18 376.254 260.967 375.892 259.816 374.817C258.528 373.133 258.308 372.07 258.532 369.964C259.05 368.392 260.044 367.499 261.48 366.721C262.586 366.339 263.71 366.384 264.865 366.387Z" fill="#0D0D0D"/>
<path d="M263.936 298.584C264.162 298.583 264.389 298.582 264.622 298.581C265.389 298.579 266.155 298.579 266.922 298.579C267.474 298.577 268.026 298.576 268.578 298.575C270.102 298.571 271.625 298.57 273.149 298.568C274.789 298.566 276.43 298.563 278.07 298.56C282.036 298.553 286.001 298.548 289.966 298.544C291.086 298.543 292.205 298.542 293.325 298.541C300.272 298.534 307.219 298.527 314.166 298.523C315.776 298.523 317.387 298.522 318.997 298.521C319.197 298.521 319.397 298.521 319.603 298.52C326.088 298.517 332.573 298.508 339.058 298.495C345.913 298.482 352.767 298.475 359.622 298.473C363.359 298.472 367.096 298.469 370.834 298.459C374.016 298.451 377.198 298.448 380.381 298.451C382.005 298.452 383.629 298.452 385.254 298.444C386.74 298.438 388.227 298.438 389.714 298.443C390.252 298.444 390.79 298.443 391.328 298.438C396.346 298.4 396.346 298.4 398.264 300.098C399.087 301.319 399.392 302.461 399.443 303.93C399.083 305.763 398.295 306.706 396.79 307.763C395.907 308.204 395.002 308.099 394.034 308.097C393.693 308.098 393.693 308.098 393.346 308.099C392.577 308.101 391.808 308.101 391.04 308.101C390.486 308.102 389.933 308.103 389.379 308.104C387.852 308.107 386.324 308.108 384.797 308.109C383.152 308.11 381.508 308.113 379.863 308.115C375.887 308.121 371.912 308.124 367.937 308.127C366.066 308.128 364.195 308.13 362.325 308.131C356.109 308.136 349.894 308.14 343.678 308.143C343.276 308.143 342.874 308.143 342.472 308.143C342.173 308.143 342.173 308.143 341.867 308.143C340.857 308.144 339.847 308.144 338.836 308.144C338.636 308.144 338.435 308.144 338.229 308.145C331.727 308.147 325.226 308.154 318.724 308.163C311.853 308.173 304.981 308.179 298.11 308.18C294.363 308.181 290.617 308.183 286.87 308.191C283.68 308.197 280.49 308.2 277.299 308.197C275.671 308.196 274.043 308.196 272.414 308.202C270.924 308.207 269.434 308.207 267.944 308.202C267.404 308.201 266.864 308.203 266.325 308.206C265.592 308.211 264.86 308.208 264.127 308.203C263.812 308.208 263.812 308.208 263.49 308.212C261.889 308.19 261 307.763 259.711 306.878C258.609 305.465 258.34 304.35 258.418 302.563C258.652 301.135 259.434 300.343 260.485 299.416C261.664 298.579 262.529 298.581 263.936 298.584Z" fill="#070707"/>
<path d="M264.123 257.794C264.352 257.793 264.581 257.791 264.817 257.789C265.583 257.785 266.348 257.789 267.115 257.793C267.67 257.792 268.225 257.79 268.78 257.787C270.304 257.783 271.829 257.785 273.353 257.789C274.998 257.791 276.642 257.787 278.286 257.784C281.507 257.779 284.728 257.78 287.95 257.783C290.567 257.786 293.184 257.786 295.801 257.785C296.174 257.785 296.546 257.785 296.93 257.784C297.686 257.784 298.442 257.784 299.198 257.783C306.09 257.78 312.981 257.783 319.873 257.79C326.164 257.795 332.456 257.795 338.747 257.789C345.816 257.783 352.884 257.78 359.953 257.784C360.706 257.784 361.46 257.785 362.213 257.785C362.584 257.785 362.954 257.785 363.336 257.786C365.951 257.787 368.566 257.785 371.181 257.782C374.367 257.779 377.552 257.78 380.738 257.786C382.364 257.789 383.99 257.79 385.616 257.786C387.103 257.783 388.591 257.785 390.078 257.791C390.617 257.792 391.156 257.792 391.695 257.789C392.427 257.785 393.157 257.789 393.889 257.794C394.204 257.79 394.204 257.79 394.526 257.786C396.001 257.808 396.83 258.202 397.969 259.122C398.989 260.363 399.415 261.342 399.443 262.954C399.045 264.797 398.179 266.062 396.587 267.116C395.622 267.484 394.689 267.458 393.67 267.452C393.443 267.453 393.216 267.454 392.982 267.455C392.215 267.458 391.449 267.456 390.683 267.455C390.13 267.456 389.577 267.457 389.024 267.459C387.501 267.463 385.978 267.462 384.454 267.462C382.813 267.462 381.172 267.465 379.53 267.468C376.313 267.473 373.096 267.474 369.879 267.475C367.265 267.475 364.651 267.476 362.037 267.478C355.836 267.482 349.635 267.486 343.435 267.486C343.137 267.486 343.137 267.486 342.834 267.486C341.828 267.486 340.823 267.485 339.817 267.485C339.618 267.485 339.418 267.485 339.212 267.485C338.809 267.485 338.405 267.485 338.001 267.485C331.717 267.485 325.434 267.489 319.15 267.497C312.093 267.506 305.036 267.512 297.979 267.511C294.241 267.511 290.504 267.512 286.766 267.519C283.584 267.524 280.403 267.525 277.221 267.521C275.597 267.519 273.973 267.519 272.348 267.525C270.862 267.529 269.376 267.528 267.89 267.523C267.352 267.522 266.814 267.523 266.275 267.527C265.545 267.531 264.815 267.528 264.084 267.523C263.769 267.527 263.769 267.527 263.447 267.532C261.972 267.511 261.146 267.113 260.006 266.197C258.716 264.732 258.424 263.876 258.452 261.954C258.582 260.708 258.935 260.117 259.711 259.122C261.199 258.101 262.31 257.77 264.123 257.794Z" fill="#070707"/>
<path d="M263.937 407.362C264.276 407.361 264.276 407.361 264.623 407.36C265.39 407.358 266.157 407.359 266.924 407.359C267.476 407.358 268.029 407.357 268.581 407.355C270.105 407.352 271.629 407.351 273.153 407.351C274.794 407.349 276.435 407.347 278.077 407.344C282.043 407.338 286.01 407.335 289.976 407.333C291.843 407.331 293.709 407.33 295.576 407.328C301.778 407.323 307.98 407.319 314.182 407.317C314.583 407.317 314.984 407.316 315.385 407.316C315.584 407.316 315.783 407.316 315.988 407.316C316.996 407.316 318.005 407.315 319.013 407.315C319.313 407.315 319.313 407.315 319.619 407.315C326.106 407.313 332.593 407.306 339.081 407.296C345.937 407.286 352.793 407.28 359.65 407.279C363.388 407.278 367.126 407.276 370.865 407.268C374.048 407.262 377.231 407.26 380.414 407.262C382.039 407.264 383.664 407.263 385.289 407.258C386.776 407.252 388.263 407.253 389.75 407.257C390.288 407.258 390.826 407.257 391.365 407.253C392.096 407.249 392.827 407.252 393.558 407.256C393.873 407.252 393.873 407.252 394.193 407.247C395.792 407.269 396.678 407.704 397.969 408.581C399.062 409.847 399.523 411.049 399.443 412.708C398.92 414.422 398.086 415.58 396.587 416.576C395.622 416.943 394.689 416.917 393.671 416.911C393.444 416.912 393.217 416.913 392.983 416.914C392.217 416.917 391.451 416.916 390.685 416.914C390.132 416.915 389.58 416.917 389.027 416.918C387.504 416.922 385.981 416.922 384.459 416.921C382.818 416.921 381.177 416.924 379.536 416.927C376.321 416.932 373.105 416.934 369.889 416.934C367.275 416.934 364.662 416.935 362.048 416.937C355.849 416.942 349.65 416.945 343.45 416.945C343.153 416.945 343.153 416.945 342.849 416.945C341.844 416.945 340.839 416.945 339.833 416.945C339.634 416.945 339.434 416.945 339.228 416.945C338.825 416.945 338.421 416.945 338.017 416.945C331.736 416.944 325.454 416.949 319.173 416.957C312.117 416.966 305.062 416.971 298.007 416.97C294.27 416.97 290.534 416.972 286.798 416.978C283.616 416.983 280.435 416.985 277.254 416.981C275.631 416.979 274.007 416.979 272.384 416.984C270.898 416.989 269.412 416.988 267.926 416.983C267.388 416.982 266.85 416.983 266.312 416.986C265.581 416.99 264.851 416.987 264.12 416.982C263.911 416.985 263.702 416.988 263.486 416.991C261.887 416.968 260.999 416.539 259.711 415.656C258.609 414.243 258.34 413.128 258.418 411.341C258.652 409.913 259.434 409.121 260.485 408.194C261.664 407.357 262.53 407.36 263.937 407.362Z" fill="#060606"/>
<path d="M264.118 149.016C264.346 149.014 264.574 149.013 264.809 149.011C265.574 149.007 266.337 149.011 267.101 149.015C267.655 149.013 268.209 149.012 268.762 149.009C270.283 149.004 271.803 149.007 273.324 149.01C274.964 149.013 276.604 149.009 278.245 149.006C281.457 149 284.67 149.002 287.883 149.005C290.494 149.008 293.105 149.008 295.716 149.007C296.273 149.006 296.273 149.006 296.841 149.006C297.595 149.006 298.35 149.005 299.104 149.005C305.979 149.002 312.854 149.005 319.729 149.011C326.005 149.017 332.28 149.016 338.556 149.011C345.607 149.005 352.658 149.002 359.71 149.006C360.461 149.006 361.213 149.006 361.965 149.007C362.519 149.007 362.519 149.007 363.085 149.007C365.693 149.008 368.302 149.007 370.91 149.004C374.088 149.001 377.265 149.001 380.443 149.008C382.065 149.011 383.687 149.012 385.309 149.008C386.793 149.005 388.277 149.007 389.761 149.013C390.298 149.014 390.836 149.013 391.373 149.011C392.103 149.007 392.832 149.011 393.562 149.016C393.876 149.012 393.876 149.012 394.196 149.008C395.793 149.032 396.68 149.468 397.969 150.344C399.062 151.61 399.523 152.811 399.443 154.471C398.92 156.185 398.086 157.343 396.587 158.339C395.621 158.706 394.689 158.68 393.67 158.674C393.443 158.675 393.216 158.676 392.982 158.677C392.215 158.68 391.449 158.678 390.683 158.677C390.13 158.678 389.577 158.679 389.024 158.681C387.501 158.684 385.978 158.684 384.455 158.684C382.813 158.683 381.172 158.687 379.53 158.69C376.313 158.694 373.096 158.696 369.879 158.696C367.265 158.697 364.651 158.698 362.037 158.7C355.836 158.704 349.636 158.708 343.435 158.707C343.137 158.707 343.137 158.707 342.834 158.707C341.828 158.707 340.823 158.707 339.817 158.707C339.618 158.707 339.418 158.707 339.212 158.707C338.809 158.707 338.405 158.707 338.001 158.707C331.717 158.707 325.434 158.711 319.15 158.719C312.093 158.728 305.036 158.733 297.979 158.733C294.241 158.733 290.504 158.734 286.766 158.741C283.584 158.746 280.403 158.747 277.221 158.743C275.597 158.741 273.973 158.741 272.348 158.746C270.862 158.751 269.376 158.75 267.89 158.745C267.352 158.744 266.814 158.745 266.275 158.748C265.545 158.753 264.815 158.75 264.084 158.745C263.769 158.749 263.769 158.749 263.447 158.754C261.972 158.732 261.146 158.335 260.006 157.419C258.716 155.954 258.424 155.098 258.452 153.175C258.582 151.93 258.935 151.339 259.711 150.344C261.198 149.325 262.307 148.992 264.118 149.016Z" fill="#060606"/>
<path d="M214.573 350.865C218.857 354.542 221.681 359.646 222.173 365.297C222.585 371.271 220.863 376.755 217 381.36C213.182 385.587 207.869 388.235 202.163 388.595C195.694 388.688 190.36 386.552 185.663 382.142C181.599 377.923 179.699 372.501 179.714 366.728C179.848 361.471 181.913 356.771 185.424 352.866C185.577 352.685 185.729 352.505 185.887 352.32C193.338 344.12 206.204 344.427 214.573 350.865ZM192.001 359.83C190.211 361.977 189.122 364.797 189.256 367.605C189.671 371.025 190.814 373.882 193.345 376.272C196.451 378.608 199.635 379.139 203.406 378.807C206.468 378.183 208.917 376.37 210.693 373.829C212.415 370.989 212.982 368.056 212.409 364.76C211.624 361.837 210.066 359.284 207.533 357.582C202.001 354.628 196.402 355.269 192.001 359.83Z" fill="#0A0A0A"/>
<path d="M216.231 243.651C219.157 246.551 221.502 250.851 221.978 254.995C222.017 255.32 222.056 255.646 222.096 255.982C222.485 260.163 221.958 263.85 220.209 267.671C220.089 267.943 219.968 268.215 219.844 268.495C217.415 273.454 212.823 277 207.695 278.828C201.914 280.706 196.011 279.947 190.653 277.227C188.616 276.113 187.026 274.638 185.424 272.977C185.228 272.79 185.033 272.604 184.831 272.412C181.386 268.905 179.739 263.463 179.694 258.643C179.79 252.666 182.062 247.589 186.143 243.258C194.836 235.062 207.754 235.668 216.231 243.651ZM191.966 251.136C189.937 253.6 189.095 256.759 189.31 259.913C189.784 263.353 191.584 266.102 194.268 268.26C196.858 269.975 199.795 270.593 202.87 270.203C206.299 269.486 209.075 267.648 211.052 264.741C212.681 261.808 213.064 258.511 212.232 255.253C211.021 251.817 208.928 249.598 205.739 247.884C200.821 245.64 195.518 247.385 191.966 251.136Z" fill="#090909"/>
<path d="M214.229 133.247C218.97 137.388 221.668 142.262 222.273 148.575C222.294 148.79 222.315 149.006 222.337 149.228C222.602 154.972 220.21 160.14 216.569 164.423C212.687 168.546 207.366 170.887 201.738 171.078C195.558 171.179 190.206 169.095 185.719 164.789C181.912 160.879 179.756 155.35 179.676 149.92C179.759 143.832 182.14 138.755 186.333 134.373C193.88 127.162 206.151 126.621 214.229 133.247ZM192.259 142.016C190.078 144.742 189.148 147.708 189.292 151.214C189.684 154.042 191.192 157.027 193.439 158.817C196.367 160.968 199.175 161.898 202.862 161.427C206.245 160.691 208.731 159.024 210.776 156.24C212.517 153.442 212.957 150.418 212.408 147.176C211.636 144.25 209.715 141.485 207.125 139.887C202.101 137.248 196.272 137.717 192.259 142.016Z" fill="#090909"/>
<path d="M473.73 465.181C473.925 465.376 474.119 465.57 474.32 465.771C474.101 465.984 473.882 466.196 473.657 466.416C472.856 467.203 472.856 467.203 472.275 467.982C471.564 468.844 470.762 469.487 469.898 470.193C469.4 470.677 468.909 471.17 468.424 471.667C468.013 472.079 467.601 472.49 467.19 472.901C466.991 473.1 466.792 473.299 466.587 473.503C466.217 473.874 465.846 474.244 465.476 474.615C465.281 474.42 465.087 474.225 464.886 474.025C467.805 471.107 470.723 468.188 473.73 465.181Z" fill="#5A5A5A"/>
<path d="M84.9 89.9114C84.9973 90.2033 85.0946 90.4951 85.1948 90.7958C83.6226 92.368 82.0504 93.9403 80.4781 95.5125C80.2836 95.4152 80.089 95.3179 79.8885 95.2177C80.447 94.6093 81.006 94.0014 81.5652 93.3937C81.7215 93.2232 81.8779 93.0528 82.039 92.8772C82.9712 91.865 83.9198 90.8771 84.9 89.9114Z" fill="#3F3F3F"/>
<path d="M175.991 287.717C176.185 287.814 176.38 287.911 176.58 288.011C175.858 288.751 175.132 289.487 174.406 290.222C174.097 290.539 174.097 290.539 173.782 290.862C173.584 291.061 173.387 291.261 173.183 291.466C173.001 291.651 172.819 291.837 172.631 292.027C172.158 292.433 172.158 292.433 171.569 292.433C172.015 291.38 172.636 290.707 173.448 289.909C173.675 289.684 173.903 289.459 174.137 289.226C174.731 288.676 175.332 288.187 175.991 287.717Z" fill="#4C4C4C"/>
<path d="M188.667 241.14C188.861 241.237 189.056 241.334 189.256 241.434C187.797 242.894 186.338 244.353 184.834 245.856C184.64 245.759 184.445 245.662 184.245 245.561C185.601 243.929 187.035 242.496 188.667 241.14Z" fill="#4A4A4A"/>
<path d="M188.372 132.656C188.566 132.754 188.761 132.851 188.961 132.951C187.6 134.313 186.238 135.675 184.834 137.078C184.64 136.981 184.445 136.884 184.245 136.783C184.655 136.315 185.067 135.849 185.479 135.383C185.823 134.993 185.823 134.993 186.174 134.595C186.864 133.871 187.576 133.261 188.372 132.656Z" fill="#505050"/>
<path d="M477.563 461.054C477.757 461.346 477.952 461.638 478.152 461.939C477.996 462.074 477.839 462.209 477.678 462.348C476.624 463.264 475.582 464.174 474.615 465.181C474.42 465.084 474.225 464.987 474.025 464.886C475.192 463.622 476.36 462.357 477.563 461.054Z" fill="#454545"/>
<path d="M174.517 180.118C174.711 180.215 174.906 180.312 175.106 180.412C172.955 182.902 172.955 182.902 171.864 183.95C171.669 183.853 171.474 183.755 171.274 183.655C171.704 183.176 172.134 182.697 172.564 182.218C172.803 181.951 173.042 181.685 173.289 181.41C173.689 180.97 174.097 180.538 174.517 180.118Z" fill="#505050"/>
<path d="M467.245 471.667C467.537 471.764 467.828 471.861 468.129 471.961C467.245 472.846 466.36 473.73 465.476 474.615C465.281 474.42 465.087 474.225 464.886 474.025C465.665 473.247 466.443 472.469 467.245 471.667Z" fill="#313131"/>
<path d="M473.73 465.181C473.925 465.376 474.119 465.57 474.32 465.771C473.337 466.753 472.355 467.736 471.372 468.719C471.417 467.22 472.262 466.55 473.289 465.581C473.435 465.449 473.58 465.317 473.73 465.181Z" fill="#353535"/>
<path d="M94.9229 80.1833C94.9229 81.0677 94.9229 81.0677 94.4485 81.6596C94.1361 81.9686 94.1361 81.9686 93.8175 82.2837C93.6123 82.4912 93.4071 82.6987 93.1956 82.9125C92.5652 83.4255 92.1787 83.6029 91.3854 83.7208C92.4698 82.3866 93.5701 81.2463 94.9229 80.1833Z" fill="#535353"/>
<path d="M260.301 367.31C260.496 367.31 260.69 367.31 260.891 367.31C260.607 367.943 260.397 368.41 259.859 368.858C259.231 369.591 259.199 370.252 259.067 371.198C259.02 371.518 258.973 371.839 258.925 372.169C258.893 372.414 258.86 372.659 258.827 372.911C258.73 372.911 258.633 372.911 258.532 372.911C258.383 370.852 258.507 369.601 259.711 367.9C259.906 367.705 260.101 367.511 260.301 367.31Z" fill="#5E5E5E"/>
<path d="M82.2469 92.5646C82.3442 92.8564 82.4414 93.1483 82.5417 93.449C81.8607 94.1299 81.1797 94.8109 80.4781 95.5125C80.2836 95.4152 80.089 95.3179 79.8885 95.2177C80.6668 94.3422 81.445 93.4666 82.2469 92.5646Z" fill="#545454"/>
<path d="M146.511 109.073C146.511 109.957 146.511 109.957 146.125 110.431C145.96 110.584 145.796 110.738 145.627 110.897C145.463 111.053 145.299 111.209 145.13 111.37C145.002 111.488 144.874 111.605 144.743 111.726C144.548 111.629 144.354 111.531 144.153 111.431C144.865 110.49 145.533 109.737 146.511 109.073Z" fill="#4E4E4E"/>
<path d="M436.586 497.314C436.781 497.411 436.976 497.508 437.176 497.608C436.592 498.289 436.009 498.97 435.407 499.672C435.018 499.477 434.629 499.283 434.228 499.082C435.006 498.499 435.785 497.915 436.586 497.314Z" fill="#4F4F4F"/>
<path d="M261.185 190.435C260.807 191.281 260.427 191.902 259.711 192.499C259.517 192.499 259.322 192.499 259.122 192.499C260.047 190.435 260.047 190.435 261.185 190.435Z" fill="#454545"/>
<path d="M76.6458 98.7552C76.7431 99.047 76.8404 99.3389 76.9406 99.6396C76.4542 100.126 75.9678 100.612 75.4667 101.114C75.2721 101.016 75.0775 100.919 74.8771 100.819C75.4608 100.138 76.0445 99.4568 76.6458 98.7552Z" fill="#4A4A4A"/>
<path d="M72.8136 103.177C73.0081 103.372 73.2027 103.566 73.4031 103.767C72.9167 104.253 72.4303 104.739 71.9292 105.241C71.7346 105.143 71.5401 105.046 71.3396 104.946C71.826 104.362 72.3124 103.778 72.8136 103.177Z" fill="#464646"/>
</svg>
