<svg xmlns="http://www.w3.org/2000/svg" width="21.497" height="20.545" viewBox="0 0 21.497 20.545">
  <path id="eye_closed" d="M9.743,3.092A8.587,8.587,0,0,1,11,3c5.105,0,8.455,4.5,9.58,6.287a1.5,1.5,0,0,1,.242.49,1.173,1.173,0,0,1,0,.447,1.51,1.51,0,0,1-.244.492,17.519,17.519,0,0,1-1.363,1.865M5.724,4.715a15.993,15.993,0,0,0-4.3,4.57,1.505,1.505,0,0,0-.243.491,1.173,1.173,0,0,0,0,.447,1.5,1.5,0,0,0,.242.49C2.546,12.5,5.9,17,11,17a9.338,9.338,0,0,0,5.288-1.723M2,1,20,19M8.879,7.879a3,3,0,1,0,4.243,4.243" transform="translate(-0.252 0.272)" fill="none" stroke="#777e92" stroke-linecap="round" stroke-linejoin="round" stroke-width="1.8"/>
</svg>
