<svg xmlns="http://www.w3.org/2000/svg" width="28.359" height="26.599" viewBox="0 0 28.359 26.599">
  <g id="ic_home" data-name="ic home" transform="translate(-169.141 -937.422)">
    <path id="Path_210" data-name="Path 210" d="M197.258,949.648,186.231,938.62a4.108,4.108,0,0,0-5.8,0L169.4,949.648a.888.888,0,1,0,1.254,1.259h0l.7-.7v11.265a2.549,2.549,0,0,0,2.549,2.549h4.437a.554.554,0,0,0,.554-.554h0v-8.2a2.772,2.772,0,0,1,2.771-2.771h3.325a2.771,2.771,0,0,1,2.771,2.771v8.2a.554.554,0,0,0,.554.554h4.435a2.549,2.549,0,0,0,2.549-2.549V950.2l.7.7a.887.887,0,0,0,1.254-1.254Z" fill="#fff"/>
  </g>
</svg>