<svg xmlns="http://www.w3.org/2000/svg" width="13.158" height="24.039" viewBox="0 0 13.158 24.039">
  <path id="ic_back" d="M11.949,24.032a1.84,1.84,0,0,0-.147-.174Q5.981,18.038.174,12.217c-.054-.054-.114-.1-.174-.154v-.107c.074-.06.147-.121.214-.188Q6,5.978,11.788.181c.241-.241.241-.241.483,0,.268.268.529.536.8.8.107.1.114.188,0,.281-.054.047-.1.1-.147.147L2.56,11.795c-.067.067-.134.134-.208.221.08.087.147.161.221.235l9.711,9.731c.3.3.583.623.871.932-.288.3-.576.61-.865.911-.067.067-.127.141-.188.214A1.186,1.186,0,0,0,11.949,24.032Z" fill="#fff"/>
</svg>