<svg
    xmlns="http://www.w3.org/2000/svg"
    viewBox="0 0 42 42"
    id="vector">
    <path
        id="path"
        d="M 14 6 L 28 6 C 29.326 6 30.598 6.527 31.536 7.464 C 32.473 8.402 33 9.674 33 11 L 33 25 C 33 26.326 32.473 27.598 31.536 28.536 C 30.598 29.473 29.326 30 28 30 L 14 30 C 12.674 30 11.402 29.473 10.464 28.536 C 9.527 27.598 9 26.326 9 25 L 9 11 C 9 9.674 9.527 8.402 10.464 7.464 C 11.402 6.527 12.674 6 14 6 Z"
        fill="#004f62"/>
    <path
        id="path_1"
        d="M 29.63 22.399 L 29.55 22.156 C 29.427 21.847 29.237 21.569 28.996 21.341 C 28.754 21.112 28.465 20.939 28.15 20.834 L 26.012 20.25 C 25.691 20.18 25.358 20.188 25.04 20.271 C 24.722 20.354 24.428 20.511 24.182 20.729 L 23.408 21.503 C 22.025 21.128 20.763 20.397 19.75 19.384 C 18.737 18.37 18.006 17.109 17.631 15.726 L 18.405 14.952 C 18.622 14.706 18.779 14.412 18.862 14.094 C 18.945 13.776 18.953 13.443 18.884 13.122 L 18.301 10.983 C 18.196 10.667 18.023 10.379 17.794 10.137 C 17.566 9.895 17.287 9.706 16.978 9.583 L 16.734 9.501 C 16.421 9.415 16.092 9.409 15.776 9.484 C 15.46 9.558 15.168 9.71 14.926 9.927 L 13.769 11.086 C 13.603 11.327 13.487 11.599 13.43 11.886 C 13.41 13.706 13.753 15.512 14.44 17.197 C 15.127 18.882 16.143 20.414 17.43 21.701 C 18.714 22.984 20.24 23.998 21.92 24.685 C 23.6 25.371 25.4 25.717 27.215 25.701 C 27.513 25.649 27.796 25.534 28.046 25.365 L 29.203 24.208 C 29.419 23.966 29.571 23.674 29.646 23.359 C 29.72 23.043 29.714 22.714 29.628 22.401 Z"
        fill="#ffffff"/>
</svg>
