<svg width="160" height="59" viewBox="0 0 160 59" fill="none" xmlns="http://www.w3.org/2000/svg">
<path d="M21.6732 19.8651V16.9188C21.6732 16.6525 21.8069 16.3861 22.0241 16.2363L24.6978 14.3221C24.9985 14.1057 25.3829 14.1057 25.6837 14.3221L28.3239 16.203C28.5745 16.3861 28.7249 16.6691 28.7249 16.9688V19.9151C28.7249 20.1315 28.491 20.2646 28.3072 20.1648L25.3328 18.3171C25.0988 18.1839 24.8147 18.2005 24.5808 18.3337L22.1244 20.1148C21.9239 20.2313 21.6732 20.0982 21.6732 19.8651Z" fill="#D5426C"/>
<path d="M24.6973 20.4145C24.998 20.1981 25.3828 20.1981 25.6836 20.4145L28.3242 22.2953C28.5747 22.4784 28.7245 22.7615 28.7246 23.061V46.9643H21.6729V23.0112C21.6729 22.7449 21.8072 22.4783 22.0244 22.3286L24.6973 20.4145ZM13.3682 9.77777C14.4376 9.77777 15.5407 9.94392 16.6436 10.2602C17.7463 10.5931 18.8156 11.0925 19.8682 11.7748L17.1445 16.7524C16.7435 16.4029 16.3087 16.1863 15.8408 16.0698C15.3898 15.9533 14.9721 15.9037 14.5879 15.9037C13.5352 15.9038 12.6995 16.2535 12.0479 16.936C11.3964 17.6351 11.0791 18.7001 11.0791 20.1479V22.4955H17.0273V28.5707H11.0791V46.8647H4.04395V28.5707H0V22.4789H4.04395V19.183C4.04395 17.2022 4.47873 15.5041 5.34766 14.1059C6.21652 12.7078 7.35224 11.6421 8.77246 10.893C10.1928 10.1606 11.7306 9.77777 13.3682 9.77777ZM49.0605 21.9955C51.918 21.9955 54.1911 22.928 55.8955 24.809C57.5998 26.6899 58.4355 29.3033 58.4355 32.6489V46.8647H51.3672V34.0141C51.3672 30.0691 49.8797 28.0883 46.9053 28.0883C45.3679 28.0883 44.1312 28.6547 43.1787 29.77C42.2265 30.8851 41.7423 32.4661 41.7422 34.4965V46.8647H34.6904V22.4789H40.8564L41.1572 25.4584C42.1264 24.3598 43.2794 23.4942 44.6162 22.895C45.9696 22.2958 47.4398 21.9956 49.0605 21.9955Z" fill="#0047AB"/>
<path d="M147.217 21.9955C149.674 21.9956 151.88 22.5454 153.785 23.6274C155.706 24.7093 157.21 26.2074 158.33 28.1215C159.433 30.0191 160.001 32.1999 160.001 34.6635V36.7778H140.901C141.335 38.1259 142.154 39.2248 143.34 40.0737C144.527 40.9226 145.914 41.3383 147.485 41.3383C149.189 41.3383 150.593 41.0722 151.713 40.5229C152.832 39.9736 153.851 39.2742 154.754 38.4086L159.014 43.4858C157.126 44.9671 155.255 45.9824 153.4 46.5317C151.545 47.0809 149.774 47.3637 148.07 47.3637C145.363 47.3637 142.973 46.8148 140.901 45.7162C138.829 44.6176 137.208 43.1031 136.021 41.1889C134.835 39.2747 134.267 37.0772 134.267 34.6137C134.267 32.2001 134.835 30.0358 135.955 28.1381C137.074 26.2405 138.612 24.7426 140.567 23.644C142.522 22.5454 144.728 21.9955 147.217 21.9955ZM73.4576 22.4789H79.4069V28.5717H73.4576V37.56C73.4576 38.7084 73.8251 39.6237 74.5768 40.2729C75.312 40.9387 76.2648 41.2553 77.401 41.2553C78.2532 41.2553 79.1227 41.0727 80.025 40.6899V46.4487C78.471 47.0479 76.9498 47.3481 75.4459 47.3481C72.5384 47.3481 70.3165 46.565 68.7457 45.017C67.1917 43.469 66.4059 41.2386 66.4059 38.3422V28.5717H62.3619V22.4789H66.4059V16.3862H73.4576V22.4789ZM108.667 46.8481H102.501L102.2 43.852C101.231 44.9506 100.094 45.8162 98.7408 46.4321C97.404 47.048 95.9329 47.3481 94.3287 47.3481C91.2208 47.348 88.8811 46.3484 87.277 44.351C85.673 42.3535 84.8707 39.407 84.8707 35.5287V22.5121H91.9733V35.5786C91.9733 37.3929 92.357 38.8084 93.1256 39.7905C93.8942 40.7891 94.9973 41.2718 96.4342 41.2719C97.9714 41.2719 99.2083 40.7394 100.161 39.6577C101.113 38.5757 101.598 37.21 101.598 35.5287H101.615V22.4623H108.667V46.8481ZM128.885 21.9789C129.938 21.979 131.041 22.1461 132.161 22.4623L131.174 28.5375C130.222 28.2214 129.303 28.0718 128.384 28.0717C126.496 28.0717 124.958 28.7712 123.805 30.1528C122.652 31.5344 122.068 33.5152 122.068 36.0952V46.8481L115.033 46.8647V22.4789H121.199L121.549 25.9575C123.321 23.3108 125.777 21.9789 128.885 21.9789ZM146.816 28.0883C145.312 28.0884 144.009 28.5381 142.906 29.437C141.803 30.3358 141.085 31.4842 140.734 32.8823H152.749V32.8657C152.398 31.4343 151.696 30.2859 150.643 29.4037C149.59 28.5215 148.303 28.0883 146.816 28.0883Z" fill="#002F6C"/>
</svg>
