<svg width="160" height="59" viewBox="0 0 160 59" fill="none" xmlns="http://www.w3.org/2000/svg">
<path d="M21.6732 19.8653V16.919C21.6732 16.6526 21.8069 16.3863 22.0241 16.2365L24.6978 14.3222C24.9985 14.1058 25.3829 14.1058 25.6837 14.3222L28.3239 16.2032C28.5745 16.3863 28.7249 16.6693 28.7249 16.9689V19.9152C28.7249 20.1316 28.491 20.2648 28.3072 20.1649L25.3328 18.3172C25.0988 18.1841 24.8147 18.2007 24.5808 18.3339L22.1244 20.115C21.9239 20.2315 21.6732 20.0983 21.6732 19.8653Z" fill="#D5426C"/>
<path d="M24.6973 20.4147C24.998 20.1983 25.3828 20.1983 25.6836 20.4147L28.3242 22.2955C28.5747 22.4786 28.7246 22.7617 28.7246 23.0612V46.9645H21.6729V23.0114C21.6729 22.745 21.8072 22.4785 22.0244 22.3287L24.6973 20.4147ZM13.3682 9.77795C14.4376 9.77795 15.5407 9.94411 16.6436 10.2604C17.7463 10.5933 18.8156 11.0927 19.8682 11.775L17.1445 16.7526C16.7435 16.403 16.3087 16.1865 15.8408 16.0699C15.3898 15.9535 14.9721 15.9039 14.5879 15.9039C13.5352 15.904 12.6995 16.2537 12.0479 16.9362C11.3964 17.6352 11.0791 18.7003 11.0791 20.1481V22.4957H17.0273V28.5709H11.0791V46.8649H4.04395V28.5709H0V22.4791H4.04395V19.1832C4.04395 17.2024 4.47873 15.5043 5.34766 14.1061C6.21652 12.7079 7.35224 11.6422 8.77246 10.8932C10.1928 10.1608 11.7306 9.77795 13.3682 9.77795ZM49.0605 21.9957C51.918 21.9957 54.1911 22.9282 55.8955 24.8092C57.5998 26.6901 58.4355 29.3034 58.4355 32.649V46.8649H51.3672V34.0143C51.3672 30.0692 49.8797 28.0885 46.9053 28.0885C45.368 28.0885 44.1312 28.654 43.1787 29.7692C42.2263 30.8844 41.7422 32.4661 41.7422 34.4967V46.8649H34.6904V22.4791H40.8564L41.1572 25.4586C42.1264 24.36 43.2794 23.4944 44.6162 22.8951C45.9696 22.296 47.4398 21.9958 49.0605 21.9957Z" fill="white"/>
<path d="M147.217 21.9957C149.674 21.9957 151.88 22.5456 153.785 23.6276C155.706 24.7095 157.21 26.2076 158.33 28.1217C159.433 30.0193 160.001 32.2001 160.001 34.6637V36.778H140.901C141.336 38.1261 142.154 39.225 143.34 40.0739C144.527 40.9227 145.914 41.3385 147.485 41.3385C149.189 41.3385 150.593 41.0724 151.713 40.5231C152.832 39.9738 153.851 39.2744 154.754 38.4088L159.014 43.486C157.126 44.9673 155.255 45.9826 153.4 46.5319C151.545 47.0811 149.774 47.3638 148.07 47.3639C145.363 47.3639 142.973 46.815 140.901 45.7164C138.829 44.6178 137.208 43.1033 136.021 41.1891C134.835 39.2749 134.267 37.0773 134.267 34.6139C134.267 32.2002 134.835 30.0359 135.955 28.1383C137.074 26.2407 138.612 24.7428 140.567 23.6442C142.522 22.5456 144.728 21.9957 147.217 21.9957ZM73.4576 22.4791H79.4069V28.5709H73.4576V37.5602C73.4576 38.7085 73.8251 39.6239 74.5768 40.2731C75.312 40.9389 76.2648 41.2555 77.401 41.2555C78.2532 41.2555 79.1227 41.0729 80.025 40.6901V46.4489C78.471 47.0481 76.9498 47.3483 75.4459 47.3483C72.5385 47.3482 70.3165 46.5652 68.7457 45.0172C67.1917 43.4691 66.4059 41.2388 66.4059 38.3424V28.5709H62.3619V22.4791H66.4059V16.3864H73.4576V22.4791ZM108.667 46.8483H102.501L102.2 43.8522C101.231 44.9507 100.094 45.8164 98.7408 46.4323C97.404 47.0481 95.9329 47.3473 94.3287 47.3473C91.2208 47.3472 88.8811 46.3486 87.277 44.3512C85.673 42.3537 84.8707 39.4072 84.8707 35.5289V22.5123H91.9733V35.5787C91.9733 37.3931 92.357 38.8085 93.1256 39.7906C93.8942 40.7893 94.9973 41.272 96.4342 41.2721C97.9715 41.2721 99.2083 40.7388 100.161 39.6569C101.113 38.5749 101.598 37.2101 101.598 35.5289H101.615V22.4625H108.667V46.8483ZM128.885 21.9791C129.938 21.9791 131.041 22.1463 132.161 22.4625L131.174 28.5377C130.222 28.2215 129.303 28.0719 128.384 28.0719C126.496 28.0719 124.958 28.7713 123.805 30.153C122.652 31.5346 122.068 33.5154 122.068 36.0953V46.8483L115.033 46.8649V22.4791H121.199L121.549 25.9576C123.321 23.311 125.777 21.9791 128.885 21.9791ZM146.816 28.0885C145.312 28.0885 144.009 28.5383 142.906 29.4371C141.803 30.336 141.085 31.4843 140.734 32.8824H152.749V32.8658C152.398 31.4343 151.696 30.2852 150.643 29.403C149.59 28.5208 148.303 28.0885 146.816 28.0885Z" fill="white"/>
</svg>
