<svg width="24" height="24" viewBox="0 0 24 24" fill="none" xmlns="http://www.w3.org/2000/svg">
<path d="M11.2225 2C11.0912 3.96978 13.0281 6.21313 14.013 7.08859C14.8009 6.69463 14.8885 5.50182 14.8338 4.95466C16.7488 5.50182 20.5789 9.71496 20.5789 14.4752C20.5789 20.7785 15.2999 23 12.4 23C9.50005 23 4 20.877 4 14.4752C4 7.64669 8.815 3.31318 11.2225 2Z" stroke="#0047AB" stroke-width="1.8" stroke-linecap="round" stroke-linejoin="round"/>
<path d="M8.5 19.5C8.5 16.5155 10.6098 13.6583 12.0191 13C13.4285 13.6583 15.5 16.4548 15.5 19.4393C15.5 22.4238 13 23 12.0191 23.0478C11 22.7748 8.5 22.4845 8.5 19.5Z" stroke="#0047AB" stroke-width="1.8" stroke-linecap="round" stroke-linejoin="round"/>
</svg>
