<svg width="24" height="44" viewBox="0 0 24 44" fill="none" xmlns="http://www.w3.org/2000/svg">
    <path d="M20 15C20 16.6569 16.4183 18 12 18C7.58172 18 4 16.6569 4 15M20 15C20 13.3431 16.4183 12 12 12C7.58172 12 4 13.3431 4 15M20 15V29C20 30.6569 16.4183 32 12 32C7.58172 32 4 30.6569 4 29V15M20 19.6666C20 21.3235 16.4183 22.6666 12 22.6666C7.58172 22.6666 4 21.3235 4 19.6666M20 24.33C20 25.9869 16.4183 27.33 12 27.33C7.58172 27.33 4 25.9869 4 24.33" stroke="#0047AB" stroke-width="1.8" stroke-linecap="round" stroke-linejoin="round"/>
</svg>
