<svg width="379" height="415" viewBox="0 0 379 415" fill="none" xmlns="http://www.w3.org/2000/svg">
<path d="M217.028 41.3801C227.505 40.6197 236.11 42.0061 244.708 48.3606C251.153 53.9707 253.198 60.1532 255.028 68.3801C257.462 61.8075 258.929 55.2967 260.028 48.3801C261.018 48.7101 262.008 49.0401 263.028 49.3801C264.031 71.7345 264.031 71.7345 258.028 80.3801C259.985 80.3105 259.985 80.3105 261.981 80.2395C274.958 79.9101 285.416 80.0145 295.653 88.9426C298.166 91.3536 300.091 93.4751 302.028 96.3801C302.028 97.3701 302.028 98.3601 302.028 99.3801C300.811 98.9676 299.594 98.5551 298.34 98.1301C296.57 97.5439 294.8 96.9609 293.028 96.3801C291.968 96.0321 290.909 95.684 289.817 95.3254C288.158 94.7956 288.158 94.7956 286.465 94.2551C285.433 93.9225 284.4 93.5899 283.336 93.2473C279.55 92.2548 275.918 91.7941 272.028 91.3801C272.995 91.8648 273.961 92.3495 274.958 92.8488C289.618 100.336 307.811 111.889 313.477 128.22C313.9 129.583 314.313 130.949 314.715 132.318C314.927 132.995 315.139 133.672 315.358 134.37C320.089 149.937 318.569 167.224 313.028 182.38C312.382 184.163 312.382 184.163 311.723 185.982C310.011 190.551 308.286 195.05 306.028 199.38C305.368 199.38 304.708 199.38 304.028 199.38C303.718 200.164 303.409 200.948 303.09 201.755C302.028 204.38 302.028 204.38 301.028 206.38C298.086 206.794 298.086 206.794 294.465 207.005C292.669 207.117 292.669 207.117 290.836 207.232C289.91 207.281 288.983 207.33 288.028 207.38C288.019 206.791 288.009 206.202 288 205.595C287.945 202.877 287.862 200.16 287.778 197.443C287.764 196.516 287.749 195.59 287.735 194.636C287.404 185.213 284.261 178.67 278.778 171.068C277.991 169.957 277.204 168.847 276.418 167.736C276.023 167.182 275.628 166.628 275.221 166.057C273.295 163.35 271.404 160.623 269.528 157.88C268.878 156.942 268.228 156.003 267.559 155.036C266.041 152.404 265.418 150.373 265.028 147.38C264.368 147.38 263.708 147.38 263.028 147.38C263.358 152 263.688 156.62 264.028 161.38C255.713 154.729 252.304 144.962 249.153 135.005C248.848 134.044 248.848 134.044 248.538 133.063C247.179 128.504 246.519 124.092 246.028 119.38C245.368 119.38 244.708 119.38 244.028 119.38C243.822 120.638 243.615 121.896 243.403 123.193C242.058 129.217 239.234 134.155 236.028 139.38C235.609 140.093 235.19 140.806 234.758 141.54C228.336 151.3 216.993 157.277 206.028 160.38C205.332 160.591 204.636 160.803 203.918 161.021C183.76 166.665 162.191 162.621 142.028 159.38C142.358 158.72 142.688 158.06 143.028 157.38C145.879 156.818 145.879 156.818 149.653 156.38C151.029 156.212 152.405 156.044 153.782 155.876C155.197 155.711 156.612 155.545 158.028 155.38C176.93 153.705 176.93 153.705 194.028 146.38C193.422 146.513 192.816 146.646 192.192 146.782C190.935 147.047 190.935 147.047 189.653 147.318C188.435 147.579 188.435 147.579 187.192 147.845C179.262 149.186 171.373 149.499 163.342 149.672C152.014 149.916 141.075 150.407 129.985 152.857C127.028 153.38 127.028 153.38 124.028 152.38C136.969 143.381 149.664 139.643 165.028 137.38C145.155 136.345 127.201 140.722 112.028 154.38C99.4754 166.583 93.4025 182.239 92.4654 199.63C92.4222 200.375 92.379 201.12 92.3345 201.888C92.2289 203.718 92.1279 205.549 92.0279 207.38C90.0895 207.32 88.152 207.231 86.2154 207.13C85.1364 207.084 84.0575 207.037 82.9458 206.989C80.0279 206.38 80.0279 206.38 78.3091 204.736C70.1873 189.804 69.9686 172.626 74.0279 156.38C74.6798 154.32 75.3771 152.272 76.1529 150.255C76.5061 149.324 76.8593 148.394 77.2232 147.435C77.4887 146.757 77.7543 146.079 78.0279 145.38C70.5039 150.459 66.7889 158.592 62.3521 166.286C61.9151 166.977 61.4781 167.668 61.0279 168.38C60.6979 168.38 60.3679 168.38 60.0279 168.38C59.685 151.237 61.9803 137.431 68.0279 121.38C68.6879 121.38 69.3479 121.38 70.0279 121.38C70.1104 120.679 70.1929 119.978 70.2779 119.255C72.9006 109.201 83.3889 99.6201 92.0279 94.3801C103.499 88.2232 103.499 88.2232 109.028 86.3801C107.94 86.2937 106.852 86.2074 105.731 86.1184C96.5587 85.2815 88.1795 84.0553 80.0279 79.3801C79.6979 78.7201 79.3679 78.0601 79.0279 77.3801C81.0021 77.4149 81.0021 77.4149 83.0161 77.4504C105.336 77.7396 121.784 72.2651 140.663 60.3257C153.759 52.0637 166.802 46.7758 182.465 47.0051C183.475 47.0152 184.485 47.0254 185.526 47.0359C192.73 47.1858 199.239 47.8329 206.028 50.3801C207.127 50.7707 208.227 51.1613 209.36 51.5637C222.821 56.8027 233.652 65.4825 244.028 75.3801C243.368 71.433 242.148 68.6455 240.063 65.2082C239.028 63.3801 239.028 63.3801 237.59 59.7551C235.856 56.0095 234.105 54.1071 231.028 51.3801C230.489 50.8735 229.95 50.3669 229.395 49.8449C225.507 46.2971 221.968 44.1947 217.028 42.3801C217.028 42.0501 217.028 41.7201 217.028 41.3801Z" fill="#FFB4AA"/>
<path d="M100.028 216.38C101.194 216.625 102.361 216.87 103.563 217.122C124.242 222.037 141.301 232.351 157.028 246.38C157.572 246.796 158.116 247.212 158.677 247.641C160.709 250.258 160.396 252.384 160.389 255.663C160.395 257.638 160.395 257.638 160.401 259.653C160.39 261.116 160.38 262.578 160.368 264.041C160.367 265.578 160.368 267.116 160.37 268.653C160.371 272.831 160.353 277.008 160.332 281.185C160.313 285.549 160.311 289.914 160.308 294.278C160.299 302.544 160.274 310.81 160.244 319.076C160.21 328.486 160.194 337.895 160.179 347.305C160.147 366.664 160.095 386.022 160.028 405.38C157.003 403.915 154.253 402.236 151.462 400.36C141.071 393.418 130.38 388.176 118.403 384.568C117.759 384.373 117.115 384.178 116.452 383.977C104.802 380.692 93.0672 380.009 81.0278 380.068C79.9512 380.069 79.9512 380.069 78.853 380.07C65.2746 380.106 51.9275 381.051 38.7426 384.466C34.4991 385.51 31.3586 385.679 27.0278 385.38C24.4303 382.783 24.5005 381.146 23.9926 377.532C23.8231 376.37 23.6536 375.208 23.4789 374.011C23.3094 372.792 23.1399 371.573 22.9653 370.318C22.6238 367.91 22.2789 365.502 21.9301 363.095C21.7057 361.488 21.7057 361.488 21.4767 359.849C21.2813 357.444 21.2813 357.444 20.0278 356.38C19.9871 354.714 19.985 353.046 20.0278 351.38C20.6452 351.282 21.2627 351.184 21.8989 351.083C28.6645 349.889 36.0204 348.387 41.0278 343.38C41.4444 339.88 41.4444 339.88 41.0278 336.38C38.2858 334.092 38.2858 334.092 35.5903 334.63C33.0832 335.264 33.0832 335.264 31.1957 336.388C28.6599 337.548 26.5506 337.786 23.7778 338.005C22.4397 338.117 22.4397 338.117 21.0746 338.232C20.3992 338.281 19.7237 338.33 19.0278 338.38C18.3678 337.06 17.7078 335.74 17.0278 334.38C17.8244 334.198 18.621 334.017 19.4418 333.829C29.0351 331.75 29.0351 331.75 37.0278 326.38C37.3611 322.88 37.3611 322.88 37.0278 319.38C36.0378 318.39 36.0378 318.39 35.0278 317.38C31.6158 317.638 28.7365 318.071 25.5903 319.443C21.9712 320.767 18.8697 320.51 15.0278 320.38C14.6978 319.39 14.3678 318.4 14.0278 317.38C14.8966 317.138 15.7654 316.895 16.6606 316.646C25.5479 314.336 25.5479 314.336 33.0278 309.38C33.7004 305.26 33.3623 303.882 31.0278 300.38C27.6496 300.778 24.6198 301.135 21.4653 302.443C18.5365 303.569 16.1389 303.525 13.0278 303.38C12.6978 302.06 12.3678 300.74 12.0278 299.38C12.9198 299.126 13.8118 298.872 14.7309 298.611C15.9014 298.266 17.0718 297.922 18.2778 297.568C19.4379 297.231 20.5981 296.895 21.7934 296.548C24.7814 295.469 26.7502 294.569 29.0278 292.38C29.6946 289.423 29.6946 289.423 29.0278 286.38C24.9871 280.723 18.5578 279.381 12.0903 278.193C10.4041 277.913 8.71702 277.64 7.02776 277.38C4.98885 267.465 2.98716 257.546 1.27776 247.568C1.0867 246.486 1.0867 246.486 0.891773 245.383C0.154018 240.968 -0.0886773 236.834 0.027759 232.38C28.7003 215.866 67.6932 209.356 100.028 216.38Z" fill="#8ECFF2"/>
<path d="M314.028 214.38C314.028 242.76 314.028 271.14 314.028 300.38C316.668 298.07 319.308 295.76 322.028 293.38C323.348 292.72 324.668 292.06 326.028 291.38C329.028 294.38 332.028 297.38 335.028 300.38C335.358 273.32 335.688 246.26 336.028 218.38C347.456 219.809 357.728 222.655 368.34 227.005C369.076 227.306 369.811 227.607 370.569 227.918C373.483 229.15 375.769 230.122 378.028 232.38C379.46 241.807 376.758 251.825 375.028 261.068C374.738 262.655 374.449 264.243 374.161 265.831C373.46 269.683 372.747 273.532 372.028 277.38C371.164 277.447 371.164 277.447 370.283 277.515C365.363 277.967 361.23 278.773 356.653 280.755C355.655 281.175 354.657 281.596 353.629 282.029C351.204 283.288 349.669 284.214 348.028 286.38C347.381 289.868 347.381 289.868 349.028 293.38C352.486 295.614 356.16 297.005 360.028 298.38C361.245 298.813 362.462 299.246 363.715 299.693C364.478 299.92 365.242 300.146 366.028 300.38C365.698 301.37 365.368 302.36 365.028 303.38C363.61 303.265 362.194 303.138 360.778 303.005C359.989 302.936 359.2 302.866 358.387 302.794C355.931 302.363 354.223 301.528 352.028 300.38C349.444 300.046 349.444 300.046 347.028 300.38C344.844 302.141 344.844 302.141 344.833 304.325C344.856 305.045 344.879 305.764 344.903 306.505C344.944 307.784 344.985 309.063 345.028 310.38C351.29 313.396 357.21 315.965 364.028 317.38C363.698 318.37 363.368 319.36 363.028 320.38C357.945 320.698 354.579 319.974 349.887 318.056C347.487 317.184 345.552 317.009 343.028 317.38C340.718 319.314 340.718 319.314 340.403 322.693C340.658 326.254 340.658 326.254 342.395 327.845C348.024 331.687 354.436 333.029 361.028 334.38C361.028 335.37 361.028 336.36 361.028 337.38C355.899 338.865 352.378 337.821 347.493 336.169C344.989 335.368 342.637 334.711 340.028 334.38C337.528 335.88 337.528 335.88 336.028 338.38C335.791 340.949 335.791 340.949 337.028 343.38C342.723 349.248 350.184 350.68 358.028 351.38C358.221 356.014 357.738 359.666 356.554 364.186C356.028 366.378 355.65 368.547 355.317 370.775C355.206 371.502 355.095 372.23 354.981 372.98C354.76 374.473 354.549 375.968 354.348 377.464C353.84 380.696 353.403 382.945 351.239 385.454C348.382 386.651 347.018 386.084 344.028 385.38C343.201 385.191 342.373 385.002 341.521 384.808C340.633 384.603 339.744 384.399 338.829 384.189C325.526 381.303 312.85 379.892 299.278 379.943C298.576 379.943 297.874 379.943 297.151 379.943C284.109 379.986 271.044 380.867 258.59 385.005C257.8 385.262 257.009 385.52 256.194 385.785C245.01 389.571 234.542 394.755 225.141 401.935C222.857 403.497 220.603 404.391 218.028 405.38C217.747 385.231 217.536 365.081 217.406 344.93C217.344 335.573 217.26 326.217 217.123 316.86C217.003 308.702 216.925 300.544 216.899 292.384C216.883 288.066 216.847 283.751 216.759 279.434C216.677 275.363 216.653 271.295 216.671 267.223C216.667 265.736 216.644 264.248 216.597 262.762C216.415 256.59 216.338 250.91 220.657 246.078C223.579 243.219 226.726 240.787 230.028 238.38C230.717 237.837 231.406 237.293 232.116 236.733C256.604 217.88 283.978 214.38 314.028 214.38Z" fill="#8ECFF2"/>
<path d="M200.028 244.38C200.688 244.71 201.348 245.04 202.028 245.38C201.038 247.36 200.048 249.34 199.028 251.38C198.368 251.38 197.708 251.38 197.028 251.38C196.595 252.308 196.595 252.308 196.153 253.255C195.028 255.38 195.028 255.38 193.028 257.38C190.403 258.005 190.403 258.005 188.028 258.38C193.098 258.704 196.861 257.99 201.622 256.232C204.71 255.139 207.878 254.28 211.028 253.38C211.028 304.2 211.028 355.02 211.028 407.38C199.337 412.694 190.688 416.563 178.313 412.486C174.438 410.966 170.753 409.243 167.028 407.38C167.028 356.23 167.028 305.08 167.028 252.38C172.028 254.38 172.028 254.38 174.09 255.232C174.73 255.487 175.369 255.742 176.028 256.005C176.667 256.266 177.307 256.526 177.965 256.794C180.388 257.482 182.522 257.476 185.028 257.38C184.396 256.583 184.396 256.583 183.75 255.771C183.203 255.064 182.655 254.358 182.09 253.63C181.545 252.934 181 252.238 180.438 251.521C179.054 249.419 178.465 247.837 178.028 245.38C183.903 250.13 183.903 250.13 185.028 252.38C189.083 252.95 189.083 252.95 193.028 252.38C195.795 250.021 197.919 247.332 200.028 244.38Z" fill="#8ECFF2"/>
<path d="M190.278 0.00512695C191.525 0.00343506 192.772 0.00174316 194.058 0C202.836 0.105599 211.36 1.01603 220.028 2.38013C221.464 2.60539 221.464 2.60539 222.929 2.83521C261.236 9.31163 293.832 29.3201 321.028 56.3801C321.781 57.1275 321.781 57.1275 322.55 57.8899C336.658 72.0794 349.222 90.1556 356.133 109.029C357.468 112.537 359.132 115.882 360.782 119.251C364.107 127.6 365.818 136.545 367.653 145.318C367.869 146.312 368.086 147.307 368.309 148.331C370.829 160.335 371.237 172.25 371.268 184.47C371.278 186.745 371.309 189.019 371.34 191.294C371.406 200.745 370.463 209.193 368.028 218.38C365.388 218.05 362.748 217.72 360.028 217.38C360.168 214.567 360.315 211.755 360.465 208.943C360.524 207.739 360.524 207.739 360.584 206.511C360.915 200.493 360.915 200.493 362.028 199.38C362.167 197.043 362.24 194.739 362.266 192.4C362.276 191.683 362.285 190.966 362.295 190.228C362.32 187.883 362.333 185.538 362.34 183.193C362.345 182.004 362.345 182.004 362.35 180.791C362.37 166.028 361.659 151.212 356.028 137.38C355.375 134.779 354.753 132.18 354.153 129.568C352.745 123.672 351.031 118.686 348.028 113.38C347.346 111.719 346.68 110.052 346.028 108.38C344.972 106.039 343.907 103.702 342.832 101.368C342.028 99.3801 342.028 99.3801 342.028 97.3801C341.368 97.3801 340.708 97.3801 340.028 97.3801C339.76 96.7859 339.492 96.1916 339.215 95.5793C329.972 76.0284 313.766 59.6918 297.028 46.3801C296.049 45.5732 295.071 44.7662 294.063 43.9348C275.584 29.068 253.681 19.8739 231.028 13.3801C229.951 13.0521 228.874 12.7242 227.764 12.3862C215.391 9.05428 202.443 9.00511 189.715 9.06763C188.495 9.07136 188.495 9.07136 187.249 9.07516C175.258 9.13179 163.72 9.50804 152.028 12.3801C151.097 12.5952 150.166 12.8104 149.207 13.032C121.879 19.4667 97.1689 31.8482 76.0278 50.3801C75.2131 51.0736 74.3984 51.7672 73.559 52.4817C62.0497 62.4977 52.4977 73.7292 44.0278 86.3801C43.333 87.4088 42.6382 88.4375 41.9223 89.4973C38.9153 94.073 36.6216 98.1084 35.0278 103.38C34.3678 103.38 33.7078 103.38 33.0278 103.38C32.8009 104.494 32.574 105.608 32.3403 106.755C31.5149 110.092 30.344 112.858 28.7153 115.88C24.0897 124.748 21.1288 134.936 19.4675 144.776C19.173 146.52 18.8568 148.261 18.5197 149.997C16.8706 159.213 16.7217 168.244 16.7671 177.572C16.7777 180.178 16.7671 182.784 16.7544 185.39C16.7469 195.88 17.4338 206.005 19.0278 216.38C15.9397 218.145 14.7947 218.38 11.0278 218.38C7.72757 210.02 7.86725 200.961 7.82467 192.087C7.81897 191.138 7.81327 190.189 7.8074 189.211C7.79802 187.215 7.79144 185.219 7.78756 183.224C7.77788 180.218 7.74679 177.212 7.7153 174.206C7.64489 161.398 8.08643 149.38 13.0278 137.38C13.5634 134.726 13.965 132.069 14.3676 129.392C23.9698 85.5854 60.2111 48.0992 96.5278 24.8176C97.186 24.3878 97.8442 23.958 98.5224 23.5151C102.356 21.1058 105.417 19.7857 110.028 19.3801C110.028 18.7201 110.028 18.0601 110.028 17.3801C136.305 6.39001 161.587 0.0143394 190.278 0.00512695Z" fill="#8ECFF2"/>
<path d="M161.907 175.419C173.543 182.73 180.898 192.06 184.583 205.251C185.028 207.38 185.028 207.38 185.028 210.38C187.998 210.38 190.968 210.38 194.028 210.38C193.945 209.411 193.863 208.441 193.778 207.443C193.778 198.272 200.47 189.701 206.274 183.111C209.5 179.928 213.104 177.616 217.028 175.38C217.72 174.964 218.412 174.547 219.125 174.118C228.312 169.501 241.225 169.586 251.012 172.345C261.166 176.237 270.862 183.652 276.028 193.38C276.708 195.042 277.377 196.707 278.028 198.38C278.358 198.71 278.688 199.04 279.028 199.38C279.286 200.872 279.486 202.375 279.653 203.88C279.796 205.102 279.796 205.102 279.942 206.349C279.97 207.019 279.999 207.69 280.028 208.38C279.028 209.38 279.028 209.38 275.965 209.443C274.996 209.422 274.027 209.401 273.028 209.38C272.822 208.081 272.615 206.781 272.403 205.443C270.275 196.082 263.837 188.727 256.028 183.38C247.156 178.796 235.805 177.149 226.078 179.94C217.674 183.026 211.062 187.968 206.028 195.38C205.577 196.032 205.125 196.685 204.661 197.357C199.296 206.94 201.235 221.232 204.028 231.38C204.688 231.38 205.348 231.38 206.028 231.38C207.5 233.208 207.5 233.208 209.09 235.63C209.618 236.419 210.145 237.208 210.688 238.021C211.935 240.217 212.715 241.881 213.028 244.38C211.59 246.13 211.59 246.13 210.028 247.38C203.109 244.589 199.408 236.74 196.59 230.193C195.054 226.054 194.647 222.763 195.028 218.38C191.398 218.38 187.768 218.38 184.028 218.38C184.172 219.432 184.317 220.484 184.465 221.568C184.465 231.403 176.649 240.719 170.028 247.38C167.529 246.413 166.292 245.928 165.106 243.466C165.028 241.38 165.028 241.38 166.137 239.669C166.679 239.12 167.22 238.571 167.778 238.005C170.554 235.016 172.375 232.145 174.028 228.38C174.688 228.38 175.348 228.38 176.028 228.38C177.203 208.463 177.203 208.463 168.965 191.068C161.915 183.833 154.658 179.337 144.495 179.138C131.845 179.091 123.335 181.186 114.028 190.38C109.139 196.103 106.758 202.111 105.028 209.38C103.028 209.423 101.027 209.421 99.0278 209.38C98.6978 209.05 98.3678 208.72 98.0278 208.38C98.4055 197.995 103.424 190.148 110.426 182.712C124.573 170.031 144.823 166.847 161.907 175.419Z" fill="#FFB4AA"/>
<path d="M254.028 193.38C254.028 194.04 254.028 194.7 254.028 195.38C253.088 195.579 253.088 195.579 252.129 195.783C250.903 196.047 250.903 196.047 249.653 196.318C248.841 196.492 248.029 196.666 247.192 196.845C244.998 197.303 244.998 197.303 243.028 198.38C243.382 202.58 243.728 206.498 245.09 210.505C246.2 213.908 246.17 216.824 246.028 220.38C245.338 220.732 244.649 221.084 243.938 221.447C238.08 224.524 232.886 227.815 227.805 232.06C226.028 233.38 226.028 233.38 224.028 233.38C222.168 227.814 221.632 222.796 221.59 216.943C221.557 216.135 221.525 215.327 221.491 214.495C221.429 207.548 223.723 202.88 228.471 197.852C235.481 191.534 245.166 190.78 254.028 193.38Z" fill="#FFB4AA"/>
<path d="M144.465 194.068C147.826 196.028 150.435 198.473 153.028 201.38C153.358 201.71 153.688 202.04 154.028 202.38C154.068 204.046 154.071 205.714 154.028 207.38C153.45 206.906 152.873 206.431 152.278 205.943C149.906 204.099 149.906 204.099 146.028 203.38C146.358 206.68 146.688 209.98 147.028 213.38C147.688 213.38 148.348 213.38 149.028 213.38C149.358 214.04 149.688 214.7 150.028 215.38C151.018 215.38 152.008 215.38 153.028 215.38C153.358 213.07 153.688 210.76 154.028 208.38C156.38 210.732 156.283 211.187 156.293 214.372C156.297 215.554 156.297 215.554 156.301 216.759C156.294 217.583 156.286 218.406 156.278 219.255C156.286 220.071 156.293 220.887 156.301 221.728C156.299 222.518 156.296 223.308 156.293 224.122C156.291 224.843 156.289 225.563 156.287 226.305C155.991 228.676 155.2 230.314 154.028 232.38C149.119 230.587 145.046 227.965 140.7 225.099C138.179 223.412 138.179 223.412 135.981 222.349C134.34 221.505 134.34 221.505 132.028 219.38C131.345 216.268 131.418 213.5 132.028 210.38C133.008 209.032 134.008 207.698 135.028 206.38C135.297 203.662 135.165 201.122 135.028 198.38C131.762 196.496 128.747 195.887 125.028 195.38C125.028 194.72 125.028 194.06 125.028 193.38C131.186 191.328 138.538 191.262 144.465 194.068Z" fill="#FFB4AA"/>
<path d="M262.028 165.38C267.856 169.574 272.977 174.793 276.028 181.38C275.533 182.865 275.533 182.865 275.028 184.38C274.368 183.679 273.708 182.978 273.028 182.255C264.864 174.25 254.812 168.234 243.028 167.943C236.658 168.294 230.321 169.365 224.028 170.38C234.807 159.213 248.665 156.464 262.028 165.38Z" fill="#FFB4AA"/>
<path d="M146.028 163.38C148.87 165.193 151.477 167.179 154.028 169.38C151.422 170.683 150.451 170.135 147.653 169.443C136.104 167.037 125.49 167.895 115.227 174.064C112.76 175.764 110.381 177.526 108.028 179.38C106.997 180.185 105.965 180.989 104.903 181.818C104.284 182.333 103.665 182.849 103.028 183.38C104.063 175.927 109.247 170.524 115.028 166.005C124.979 159.143 134.98 158.484 146.028 163.38Z" fill="#FFB4AA"/>
<path d="M230.028 238.38C230.688 238.71 231.348 239.04 232.028 239.38C231.177 240.067 230.327 240.753 229.451 241.46C223.539 246.549 219.319 250.544 218.585 258.67C218.55 261.425 218.578 264.13 218.665 266.879C218.669 268.398 218.667 269.917 218.66 271.436C218.657 275.524 218.727 279.607 218.811 283.694C218.887 287.978 218.893 292.262 218.907 296.546C218.945 304.643 219.043 312.738 219.164 320.833C219.298 330.057 219.364 339.28 219.424 348.505C219.549 367.464 219.76 386.422 220.028 405.38C219.368 405.38 218.708 405.38 218.028 405.38C217.747 385.231 217.536 365.081 217.406 344.93C217.344 335.573 217.26 326.217 217.123 316.86C217.003 308.702 216.925 300.544 216.899 292.384C216.883 288.066 216.847 283.751 216.759 279.434C216.677 275.363 216.653 271.295 216.67 267.223C216.667 265.736 216.644 264.248 216.597 262.762C216.411 256.484 216.364 250.854 220.791 245.974C223.678 243.167 226.765 240.734 230.028 238.38Z" fill="#8ECFF2"/>
<path d="M167.028 252.38C170.842 253.906 172.993 254.908 176.028 257.38C173.265 256.857 170.702 256.271 168.028 255.38C168.028 305.54 168.028 355.7 168.028 407.38C167.698 407.38 167.368 407.38 167.028 407.38C167.028 356.23 167.028 305.08 167.028 252.38Z" fill="#6DABC0"/>
<path d="M261.028 164.38C261.028 164.71 261.028 165.04 261.028 165.38C245.188 165.875 245.188 165.875 229.028 166.38C237.823 157.585 250.819 158.606 261.028 164.38Z" fill="#FFB4AA"/>
<path d="M146.028 163.38C146.688 164.04 147.348 164.7 148.028 165.38C132.188 165.875 132.188 165.875 116.028 166.38C124.446 157.962 135.646 159.028 146.028 163.38Z" fill="#FFB4AA"/>
<path d="M200.028 244.38C200.688 244.71 201.348 245.04 202.028 245.38C201.038 247.36 200.048 249.34 199.028 251.38C198.368 251.38 197.708 251.38 197.028 251.38C196.595 252.308 196.595 252.308 196.153 253.255C195.028 255.38 195.028 255.38 193.028 257.38C189.808 257.863 187.065 257.54 184.028 256.38C181.496 253.648 179.729 250.683 178.028 247.38C178.358 246.72 178.688 246.06 179.028 245.38C179.368 245.885 179.708 246.391 180.059 246.911C182.917 250.748 182.917 250.748 186.961 253.126C189.342 253.354 190.783 253.237 193.028 252.38C195.762 249.987 197.92 247.331 200.028 244.38Z" fill="#FFB4AA"/>
<path d="M230.028 238.38C230.688 238.71 231.348 239.04 232.028 239.38C230.75 240.362 230.75 240.362 229.447 241.364C223.732 246.129 219.472 250.237 218.724 257.905C218.576 261.825 218.643 265.711 218.778 269.63C218.79 271.262 218.796 272.893 218.797 274.525C218.811 278.48 218.899 282.427 219.028 286.38C218.698 286.38 218.368 286.38 218.028 286.38C217.728 281.313 217.512 276.251 217.369 271.176C217.309 269.456 217.227 267.736 217.123 266.018C216.229 250.956 216.229 250.956 220.752 245.726C223.613 242.921 226.698 240.599 230.028 238.38Z" fill="#5D9DB4"/>
<path d="M118.028 72.3801C118.688 72.7101 119.348 73.0401 120.028 73.3801C110.515 78.1134 101.602 79.4804 91.0903 80.1926C90.2487 80.258 89.4071 80.3233 88.54 80.3906C87.7432 80.4349 86.9464 80.4791 86.1255 80.5247C85.4089 80.5695 84.6922 80.6144 83.9539 80.6606C81.4572 80.297 80.6123 79.2793 79.0278 77.3801C81.002 77.4149 81.002 77.4149 83.0161 77.4504C93.9624 77.5869 104.239 77.7007 114.59 73.6926C115.725 73.2595 116.859 72.8264 118.028 72.3801Z" fill="#FFB4AA"/>
<path d="M178.028 245.38C183.773 250.104 183.773 250.104 185.528 252.005C187.743 254.036 190.323 255.118 193.028 256.38C193.028 256.71 193.028 257.04 193.028 257.38C189.828 257.558 187.077 257.411 184.028 256.38C181.174 253.428 178.028 249.639 178.028 245.38Z" fill="#FFB4AA"/>
<path d="M90.0278 95.3801C90.6878 95.7101 91.3478 96.0401 92.0278 96.3801C87.0778 101.33 82.1278 106.28 77.0278 111.38C76.3678 111.05 75.7078 110.72 75.0278 110.38C79.7467 104.98 84.3314 99.762 90.0278 95.3801Z" fill="#FFB4AA"/>
<path d="M176.028 137.38C173.589 139.819 172.813 139.667 169.458 139.794C168.114 139.852 168.114 139.852 166.743 139.911C165.806 139.942 164.868 139.973 163.903 140.005C162.958 140.044 162.013 140.083 161.04 140.122C158.703 140.217 156.365 140.302 154.028 140.38C157.491 138.072 160.445 137.69 164.465 137.193C165.134 137.098 165.802 137.003 166.491 136.906C169.904 136.462 172.755 136.2 176.028 137.38Z" fill="#FFB4AA"/>
<path d="M260.028 48.3801C261.018 48.7101 262.008 49.0401 263.028 49.3801C262.698 50.7001 262.368 52.0201 262.028 53.3801C261.698 53.3801 261.368 53.3801 261.028 53.3801C260.918 54.0208 260.809 54.6615 260.696 55.3215C259.703 60.7363 258.403 65.4134 256.028 70.3801C255.028 68.3801 255.028 68.3801 255.516 66.6028C255.924 65.5335 255.924 65.5335 256.34 64.4426C258.207 59.1845 259.154 53.8787 260.028 48.3801Z" fill="#FFB4AA"/>
<path d="M213.028 177.38C213.688 177.71 214.348 178.04 215.028 178.38C210.408 183 205.788 187.62 201.028 192.38C201.028 187.477 204.73 184.767 208.028 181.38C209.653 179.997 211.302 178.636 213.028 177.38Z" fill="#FFB4AA"/>
<path d="M250.028 56.3801C251.018 56.8751 251.018 56.8751 252.028 57.3801C252.879 60.1809 252.879 60.1809 253.653 63.6926C253.913 64.8438 254.174 65.9949 254.442 67.1809C255.028 70.3801 255.028 70.3801 255.028 74.3801C254.038 74.3801 253.048 74.3801 252.028 74.3801C251.967 73.4997 251.907 72.6193 251.844 71.7122C251.76 70.5507 251.677 69.3893 251.59 68.1926C251.509 67.0441 251.428 65.8955 251.344 64.7122C251.074 61.8641 250.653 59.168 250.028 56.3801Z" fill="#FFB4AA"/>
<path d="M230.028 238.38C230.688 238.71 231.348 239.04 232.028 239.38C228.068 243.34 224.108 247.3 220.028 251.38C219.698 250.39 219.368 249.4 219.028 248.38C224.473 243.43 224.473 243.43 230.028 238.38Z" fill="#8ECFF2"/>
<path d="M155.028 156.38C153.852 158.396 153.852 158.396 152.028 160.38C149.547 160.552 149.547 160.552 146.84 160.13C145.939 160.001 145.038 159.872 144.11 159.739C143.079 159.562 143.079 159.562 142.028 159.38C143.028 157.38 143.028 157.38 144.59 156.755C148.092 156.216 151.486 156.321 155.028 156.38Z" fill="#FFB4AA"/>
<path d="M25.0278 297.38C24.3897 297.646 23.7517 297.911 23.0942 298.185C22.2679 298.538 21.4417 298.891 20.5903 299.255C19.7666 299.603 18.9429 299.951 18.0942 300.31C15.8704 301.205 15.8704 301.205 15.0278 303.38C14.0378 303.05 13.0478 302.72 12.0278 302.38C12.0278 301.39 12.0278 300.4 12.0278 299.38C13.8169 298.851 15.6092 298.332 17.4028 297.818C18.4006 297.528 19.3983 297.238 20.4263 296.939C23.0278 296.38 23.0278 296.38 25.0278 297.38Z" fill="#3BA3C7"/>
<path d="M353.028 282.38C351.153 286.255 351.153 286.255 350.028 287.38C349.836 291.012 349.836 291.012 351.028 294.38C350.038 294.05 349.048 293.72 348.028 293.38C347.278 290.13 347.278 290.13 347.028 286.38C350.002 282.38 350.002 282.38 353.028 282.38Z" fill="#A4D1E1"/>
<path d="M115.028 180.38C113.472 184.199 111.072 186.641 108.028 189.38C107.368 189.38 106.708 189.38 106.028 189.38C107.571 185.592 110.581 180.38 115.028 180.38Z" fill="#FFB4AA"/>
<path d="M246.028 112.38C246.688 112.38 247.348 112.38 248.028 112.38C248.028 117.33 248.028 122.28 248.028 127.38C247.698 127.38 247.368 127.38 247.028 127.38C246.883 126.143 246.739 124.905 246.59 123.63C246.314 121.361 246 119.277 245.403 117.068C245.028 115.38 245.028 115.38 246.028 112.38Z" fill="#FFB4AA"/>
<path d="M349.028 299.38C347.153 303.255 347.153 303.255 346.028 304.38C345.836 308.012 345.836 308.012 347.028 311.38C346.038 311.05 345.048 310.72 344.028 310.38C343.661 302.914 343.661 302.914 345.403 300.38C347.028 299.38 347.028 299.38 349.028 299.38Z" fill="#AED4E2"/>
<path d="M178.028 245.38C183.903 250.005 183.903 250.005 185.028 253.38C184.038 253.71 183.048 254.04 182.028 254.38C178.028 247.63 178.028 247.63 178.028 245.38Z" fill="#FFB4AA"/>
<path d="M233.028 195.38C231.587 198.742 229.78 200.972 227.028 203.38C226.368 203.38 225.708 203.38 225.028 203.38C226.545 199.84 228.781 195.38 233.028 195.38Z" fill="#FFB4AA"/>
<path d="M345.028 316.38C344.739 316.916 344.45 317.453 344.153 318.005C342.861 320.733 341.942 323.506 341.028 326.38C340.698 326.38 340.368 326.38 340.028 326.38C339.661 319.897 339.661 319.897 341.403 317.443C343.028 316.38 343.028 316.38 345.028 316.38Z" fill="#C1DCE5"/>
<path d="M113.028 167.38C113.688 167.71 114.348 168.04 115.028 168.38C113.412 170.421 111.742 172.421 110.028 174.38C109.368 174.38 108.708 174.38 108.028 174.38C109.321 171.496 110.687 169.508 113.028 167.38Z" fill="#FFB4AA"/>
</svg>
