<svg width="901" height="566" viewBox="0 0 901 566" fill="none" xmlns="http://www.w3.org/2000/svg">
<path d="M479 41.3801C489.477 40.6197 498.082 42.0061 506.68 48.3606C513.125 53.9707 515.17 60.1532 517 68.3801C519.434 61.8075 520.901 55.2967 522 48.3801C522.99 48.7101 523.98 49.0401 525 49.3801C526.003 71.7345 526.003 71.7345 520 80.3801C521.957 80.3105 521.957 80.3105 523.953 80.2395C536.93 79.9101 547.388 80.0145 557.625 88.9426C560.138 91.3536 562.063 93.4751 564 96.3801C564 97.3701 564 98.3601 564 99.3801C562.783 98.9676 561.566 98.5551 560.313 98.1301C558.543 97.5439 556.772 96.9609 555 96.3801C553.94 96.032 552.881 95.684 551.789 95.3254C550.13 94.7956 550.13 94.7956 548.438 94.2551C547.405 93.9225 546.372 93.5899 545.309 93.2473C541.522 92.2548 537.89 91.7941 534 91.3801C534.967 91.8648 535.934 92.3495 536.93 92.8488C551.59 100.336 569.783 111.889 575.449 128.22C575.872 129.583 576.285 130.949 576.688 132.318C576.9 132.995 577.112 133.672 577.33 134.37C582.061 149.937 580.541 167.224 575 182.38C574.354 184.163 574.354 184.163 573.695 185.982C571.983 190.551 570.258 195.05 568 199.38C567.34 199.38 566.68 199.38 566 199.38C565.691 200.164 565.381 200.948 565.063 201.755C564 204.38 564 204.38 563 206.38C560.059 206.794 560.059 206.794 556.438 207.005C554.641 207.117 554.641 207.117 552.809 207.232C551.882 207.281 550.955 207.33 550 207.38C549.991 206.791 549.981 206.202 549.972 205.595C549.917 202.877 549.834 200.16 549.75 197.443C549.736 196.516 549.722 195.59 549.707 194.636C549.376 185.213 546.233 178.67 540.75 171.068C539.963 169.957 539.176 168.847 538.391 167.736C537.996 167.182 537.6 166.628 537.193 166.057C535.267 163.35 533.376 160.623 531.5 157.88C530.85 156.942 530.201 156.003 529.531 155.036C528.014 152.404 527.39 150.373 527 147.38C526.34 147.38 525.68 147.38 525 147.38C525.33 152 525.66 156.62 526 161.38C517.686 154.729 514.276 144.962 511.125 135.005C510.82 134.044 510.82 134.044 510.51 133.063C509.151 128.504 508.491 124.092 508 119.38C507.34 119.38 506.68 119.38 506 119.38C505.794 120.638 505.588 121.896 505.375 123.193C504.03 129.217 501.206 134.155 498 139.38C497.581 140.093 497.162 140.806 496.73 141.54C490.308 151.3 478.965 157.277 468 160.38C467.304 160.592 466.608 160.803 465.891 161.021C445.733 166.665 424.163 162.621 404 159.38C404.33 158.72 404.66 158.06 405 157.38C407.852 156.818 407.852 156.818 411.625 156.38C413.001 156.212 414.378 156.044 415.754 155.876C417.169 155.711 418.585 155.545 420 155.38C438.902 153.705 438.902 153.705 456 146.38C455.394 146.513 454.788 146.646 454.164 146.782C452.907 147.047 452.907 147.047 451.625 147.318C450.407 147.579 450.407 147.579 449.164 147.845C441.234 149.186 433.345 149.499 425.314 149.672C413.986 149.916 403.048 150.407 391.957 152.857C389 153.38 389 153.38 386 152.38C398.941 143.381 411.636 139.643 427 137.38C407.127 136.345 389.173 140.722 374 154.38C361.448 166.583 355.375 182.239 354.438 199.63C354.394 200.375 354.351 201.12 354.307 201.888C354.201 203.718 354.1 205.549 354 207.38C352.062 207.32 350.124 207.231 348.188 207.13C347.109 207.084 346.03 207.037 344.918 206.989C342 206.38 342 206.38 340.281 204.736C332.159 189.804 331.941 172.626 336 156.38C336.652 154.32 337.349 152.272 338.125 150.255C338.478 149.324 338.831 148.394 339.195 147.435C339.461 146.757 339.726 146.079 340 145.38C332.476 150.459 328.761 158.592 324.324 166.286C323.887 166.977 323.45 167.668 323 168.38C322.67 168.38 322.34 168.38 322 168.38C321.657 151.237 323.952 137.431 330 121.38C330.66 121.38 331.32 121.38 332 121.38C332.083 120.679 332.165 119.978 332.25 119.255C334.873 109.201 345.361 99.6201 354 94.3801C365.471 88.2232 365.471 88.2232 371 86.3801C369.912 86.2937 368.824 86.2074 367.703 86.1184C358.531 85.2815 350.152 84.0553 342 79.3801C341.67 78.7201 341.34 78.0601 341 77.3801C342.974 77.4149 342.974 77.4149 344.988 77.4504C367.308 77.7396 383.756 72.2651 402.635 60.3257C415.731 52.0637 428.774 46.7758 444.438 47.0051C445.447 47.0152 446.457 47.0254 447.498 47.0359C454.702 47.1858 461.211 47.8329 468 50.3801C469.1 50.7707 470.199 51.1613 471.332 51.5637C484.793 56.8027 495.624 65.4825 506 75.3801C505.34 71.433 504.12 68.6455 502.035 65.2082C501 63.3801 501 63.3801 499.563 59.7551C497.828 56.0095 496.077 54.1071 493 51.3801C492.461 50.8735 491.922 50.3669 491.367 49.8449C487.479 46.2971 483.94 44.1947 479 42.3801C479 42.0501 479 41.7201 479 41.3801Z" fill="#531C17"/>
<path d="M362 216.38C363.167 216.625 364.333 216.87 365.535 217.122C386.215 222.037 403.273 232.351 419 246.38C419.544 246.796 420.089 247.212 420.649 247.641C422.681 250.258 422.369 252.384 422.361 255.663C422.367 257.638 422.367 257.638 422.373 259.653C422.363 261.116 422.352 262.578 422.341 264.041C422.34 265.578 422.34 267.116 422.342 268.653C422.343 272.831 422.325 277.008 422.304 281.185C422.285 285.549 422.284 289.914 422.28 294.278C422.271 302.544 422.246 310.81 422.216 319.076C422.183 328.486 422.166 337.895 422.151 347.305C422.12 366.664 422.067 386.022 422 405.38C418.976 403.915 416.225 402.236 413.434 400.36C403.044 393.418 392.352 388.176 380.375 384.568C379.731 384.373 379.088 384.178 378.425 383.977C366.775 380.692 355.039 380.009 343 380.068C341.923 380.069 341.923 380.069 340.825 380.07C327.247 380.106 313.9 381.051 300.715 384.466C296.471 385.51 293.331 385.679 289 385.38C286.403 382.783 286.473 381.146 285.965 377.532C285.795 376.37 285.626 375.208 285.451 374.011C285.282 372.792 285.112 371.573 284.937 370.318C284.596 367.91 284.251 365.502 283.902 363.095C283.678 361.488 283.678 361.488 283.449 359.849C283.253 357.444 283.253 357.444 282 356.38C281.959 354.714 281.957 353.046 282 351.38C282.617 351.282 283.235 351.184 283.871 351.083C290.637 349.889 297.993 348.387 303 343.38C303.417 339.88 303.417 339.88 303 336.38C300.258 334.092 300.258 334.092 297.562 334.63C295.055 335.264 295.055 335.264 293.168 336.388C290.632 337.548 288.523 337.786 285.75 338.005C284.412 338.117 284.412 338.117 283.047 338.232C282.371 338.281 281.696 338.33 281 338.38C280.34 337.06 279.68 335.74 279 334.38C279.797 334.198 280.593 334.017 281.414 333.829C291.007 331.75 291.007 331.75 299 326.38C299.333 322.88 299.333 322.88 299 319.38C298.01 318.39 298.01 318.39 297 317.38C293.588 317.638 290.709 318.071 287.562 319.443C283.943 320.767 280.842 320.51 277 320.38C276.67 319.39 276.34 318.4 276 317.38C276.869 317.138 277.738 316.895 278.633 316.646C287.52 314.336 287.52 314.336 295 309.38C295.673 305.26 295.335 303.882 293 300.38C289.622 300.778 286.592 301.135 283.437 302.443C280.509 303.569 278.111 303.525 275 303.38C274.67 302.06 274.34 300.74 274 299.38C274.892 299.126 275.784 298.872 276.703 298.611C277.874 298.266 279.044 297.922 280.25 297.568C281.41 297.231 282.57 296.895 283.766 296.548C286.754 295.469 288.722 294.569 291 292.38C291.667 289.423 291.667 289.423 291 286.38C286.959 280.723 280.53 279.381 274.062 278.193C272.376 277.913 270.689 277.64 269 277.38C266.961 267.465 264.959 257.546 263.25 247.568C263.059 246.486 263.059 246.486 262.864 245.383C262.126 240.968 261.884 236.834 262 232.38C290.673 215.866 329.665 209.356 362 216.38Z" fill="#07759B"/>
<path d="M576 214.38C576 242.76 576 271.14 576 300.38C578.64 298.07 581.28 295.76 584 293.38C585.32 292.72 586.64 292.06 588 291.38C591 294.38 594 297.38 597 300.38C597.33 273.32 597.66 246.26 598 218.38C609.428 219.809 619.701 222.655 630.312 227.005C631.048 227.306 631.783 227.607 632.541 227.918C635.455 229.15 637.742 230.122 640 232.38C641.432 241.807 638.731 251.825 637 261.068C636.71 262.655 636.421 264.243 636.133 265.831C635.432 269.683 634.719 273.532 634 277.38C633.136 277.447 633.136 277.447 632.255 277.515C627.335 277.967 623.202 278.773 618.625 280.755C617.627 281.175 616.63 281.596 615.602 282.029C613.177 283.288 611.641 284.214 610 286.38C609.353 289.868 609.353 289.868 611 293.38C614.459 295.614 618.132 297.005 622 298.38C623.217 298.813 624.434 299.246 625.687 299.693C626.451 299.92 627.214 300.146 628 300.38C627.67 301.37 627.34 302.36 627 303.38C625.582 303.265 624.166 303.138 622.75 303.005C621.961 302.936 621.172 302.866 620.359 302.794C617.903 302.363 616.195 301.528 614 300.38C611.416 300.046 611.416 300.046 609 300.38C606.817 302.141 606.817 302.141 606.805 304.325C606.828 305.045 606.851 305.764 606.875 306.505C606.916 307.784 606.957 309.063 607 310.38C613.262 313.396 619.182 315.965 626 317.38C625.67 318.37 625.34 319.36 625 320.38C619.917 320.698 616.551 319.974 611.859 318.056C609.459 317.184 607.524 317.009 605 317.38C602.69 319.314 602.69 319.314 602.375 322.693C602.63 326.254 602.63 326.254 604.367 327.845C609.996 331.687 616.408 333.029 623 334.38C623 335.37 623 336.36 623 337.38C617.872 338.865 614.35 337.821 609.465 336.169C606.962 335.368 604.61 334.711 602 334.38C599.5 335.88 599.5 335.88 598 338.38C597.763 340.949 597.763 340.949 599 343.38C604.695 349.248 612.156 350.68 620 351.38C620.193 356.014 619.711 359.666 618.526 364.186C618.001 366.378 617.622 368.547 617.289 370.775C617.178 371.502 617.067 372.23 616.953 372.98C616.732 374.473 616.521 375.968 616.32 377.464C615.812 380.696 615.375 382.945 613.211 385.454C610.354 386.651 608.99 386.084 606 385.38C605.173 385.191 604.346 385.002 603.493 384.808C602.605 384.603 601.716 384.399 600.801 384.189C587.498 381.303 574.822 379.892 561.25 379.943C560.548 379.943 559.846 379.943 559.123 379.943C546.081 379.986 533.017 380.867 520.562 385.005C519.772 385.262 518.981 385.52 518.166 385.785C506.983 389.571 496.514 394.755 487.113 401.935C484.829 403.497 482.575 404.391 480 405.38C479.719 385.231 479.508 365.081 479.378 344.93C479.316 335.573 479.232 326.217 479.095 316.86C478.975 308.702 478.898 300.544 478.871 292.384C478.855 288.066 478.819 283.751 478.731 279.434C478.649 275.363 478.625 271.295 478.643 267.223C478.639 265.736 478.616 264.248 478.57 262.762C478.387 256.59 478.31 250.91 482.629 246.078C485.552 243.219 488.698 240.787 492 238.38C492.689 237.837 493.378 237.293 494.088 236.733C518.576 217.88 545.951 214.38 576 214.38Z" fill="#077398"/>
<path d="M462 244.38C462.66 244.71 463.32 245.04 464 245.38C463.01 247.36 462.02 249.34 461 251.38C460.34 251.38 459.68 251.38 459 251.38C458.567 252.308 458.567 252.308 458.125 253.255C457 255.38 457 255.38 455 257.38C452.375 258.005 452.375 258.005 450 258.38C455.07 258.704 458.833 257.99 463.594 256.232C466.682 255.139 469.85 254.28 473 253.38C473 304.2 473 355.02 473 407.38C461.309 412.694 452.66 416.563 440.285 412.486C436.41 410.966 432.725 409.243 429 407.38C429 356.23 429 305.08 429 252.38C434 254.38 434 254.38 436.062 255.232C436.702 255.487 437.341 255.742 438 256.005C438.639 256.266 439.279 256.526 439.938 256.794C442.36 257.482 444.494 257.476 447 257.38C446.368 256.583 446.368 256.583 445.723 255.771C445.175 255.064 444.627 254.358 444.062 253.63C443.517 252.934 442.972 252.238 442.41 251.521C441.026 249.419 440.437 247.837 440 245.38C445.875 250.13 445.875 250.13 447 252.38C451.055 252.95 451.055 252.95 455 252.38C457.768 250.021 459.891 247.332 462 244.38Z" fill="#076E91"/>
<path d="M770.75 481.13C771.727 481.109 772.704 481.089 773.711 481.068C785.72 481.003 794.352 486.694 802.875 494.943C811.441 504.012 813.649 513.481 813.698 525.625C813.347 537.125 807.619 546.009 800 554.38C797.316 556.462 797.316 556.462 794.562 558.193C793.656 558.777 792.75 559.361 791.816 559.962C788.829 561.466 786.307 562.005 783 562.38C783 563.04 783 563.7 783 564.38C753.43 565.183 753.43 565.183 742 554.38C733.676 546.139 728.858 536.808 728.619 524.923C728.653 511.048 731.874 501.794 741.656 491.665C750.198 483.748 759.435 481.189 770.75 481.13Z" fill="#2B1716"/>
<path d="M677.75 481.13C678.727 481.109 679.704 481.089 680.711 481.068C692.72 481.003 701.352 486.694 709.875 494.943C718.441 504.012 720.649 513.481 720.698 525.625C720.347 537.125 714.619 546.009 707 554.38C704.316 556.462 704.316 556.462 701.562 558.193C700.656 558.777 699.75 559.361 698.816 559.962C695.829 561.466 693.307 562.005 690 562.38C690 563.04 690 563.7 690 564.38C660.43 565.183 660.43 565.183 649 554.38C640.676 546.139 635.858 536.808 635.619 524.923C635.653 511.048 638.874 501.794 648.656 491.665C657.198 483.748 666.435 481.189 677.75 481.13Z" fill="#2B1716"/>
<path d="M128.75 481.13C129.727 481.109 130.704 481.089 131.711 481.068C143.72 481.003 152.352 486.694 160.875 494.943C169.46 504.112 171.599 514.89 171.705 527.274C171.256 537.666 164.832 546.915 158 554.38C155.316 556.462 155.316 556.462 152.563 558.193C151.656 558.777 150.75 559.361 149.816 559.962C146.829 561.466 144.308 562.005 141 562.38C141 563.04 141 563.7 141 564.38C111.43 565.183 111.43 565.183 100 554.38C95.1734 549.601 91.5356 544.701 89 538.38C88.6429 537.5 88.2859 536.619 87.918 535.712C85.0404 525.267 85.655 511.86 91 502.38C100.026 488.373 112.181 481.216 128.75 481.13Z" fill="#2B1716"/>
<path d="M553 482.38C560.239 482.298 567.479 482.215 574.938 482.13C577.205 482.094 579.472 482.057 581.808 482.02C583.631 482.008 585.454 481.998 587.277 481.99C588.203 481.969 589.129 481.949 590.082 481.927C598.028 481.923 604.465 483.87 610.438 489.255C615.029 494.381 615.427 499.882 615.336 506.544C614.816 510.933 613.122 514.543 611 518.38C611.743 518.607 612.485 518.834 613.25 519.068C617.664 521.174 620.207 524.905 622 529.38C623.027 538.567 622.629 546.722 617 554.38C612.297 559.716 605.893 562.236 599 563.38C597.405 563.462 595.807 563.498 594.21 563.494C593.276 563.494 592.343 563.493 591.381 563.493C589.93 563.486 589.93 563.486 588.449 563.478C587.55 563.477 586.651 563.476 585.724 563.475C582.379 563.47 579.033 563.456 575.688 563.443C568.201 563.422 560.714 563.401 553 563.38C553 536.65 553 509.92 553 482.38Z" fill="#291514"/>
<path d="M452.25 0.00512695C453.497 0.00343506 454.745 0.00174316 456.03 0C464.808 0.105599 473.332 1.01603 482 2.38013C483.436 2.60539 483.436 2.60539 484.901 2.83521C523.208 9.31163 555.804 29.3201 583 56.3801C583.753 57.1275 583.753 57.1275 584.522 57.8899C598.63 72.0794 611.194 90.1556 618.105 109.029C619.44 112.537 621.104 115.882 622.754 119.251C626.079 127.6 627.79 136.545 629.625 145.318C629.842 146.312 630.058 147.307 630.281 148.331C632.802 160.335 633.209 172.25 633.24 184.47C633.25 186.745 633.281 189.019 633.312 191.294C633.379 200.745 632.435 209.193 630 218.38C627.36 218.05 624.72 217.72 622 217.38C622.14 214.567 622.287 211.755 622.438 208.943C622.496 207.739 622.496 207.739 622.557 206.511C622.887 200.493 622.887 200.493 624 199.38C624.139 197.043 624.213 194.739 624.238 192.4C624.248 191.683 624.257 190.966 624.267 190.228C624.292 187.883 624.305 185.538 624.312 183.193C624.317 182.004 624.317 182.004 624.322 180.791C624.342 166.028 623.631 151.212 618 137.38C617.348 134.779 616.725 132.18 616.125 129.568C614.717 123.672 613.003 118.686 610 113.38C609.319 111.719 608.653 110.052 608 108.38C606.944 106.039 605.879 103.702 604.805 101.368C604 99.3801 604 99.3801 604 97.3801C603.34 97.3801 602.68 97.3801 602 97.3801C601.732 96.7859 601.464 96.1916 601.188 95.5793C591.944 76.0284 575.738 59.6918 559 46.3801C558.022 45.5732 557.043 44.7662 556.035 43.9348C537.556 29.068 515.653 19.8739 493 13.3801C491.923 13.0521 490.846 12.7242 489.736 12.3862C477.363 9.05428 464.415 9.00511 451.688 9.06763C450.467 9.07136 450.467 9.07136 449.222 9.07516C437.231 9.13179 425.692 9.50804 414 12.3801C413.069 12.5952 412.139 12.8104 411.18 13.032C383.851 19.4667 359.141 31.8482 338 50.3801C337.185 51.0736 336.371 51.7672 335.531 52.4817C324.022 62.4977 314.47 73.7292 306 86.3801C305.305 87.4088 304.61 88.4375 303.895 89.4973C300.887 94.073 298.594 98.1084 297 103.38C296.34 103.38 295.68 103.38 295 103.38C294.773 104.494 294.546 105.608 294.312 106.755C293.487 110.092 292.316 112.858 290.687 115.88C286.062 124.748 283.101 134.936 281.44 144.776C281.145 146.52 280.829 148.261 280.492 149.997C278.843 159.213 278.694 168.244 278.739 177.572C278.75 180.178 278.739 182.784 278.727 185.39C278.719 195.88 279.406 206.005 281 216.38C277.912 218.145 276.767 218.38 273 218.38C269.7 210.02 269.839 200.961 269.797 192.087C269.791 191.138 269.785 190.189 269.78 189.211C269.77 187.215 269.764 185.219 269.76 183.224C269.75 180.218 269.719 177.212 269.687 174.206C269.617 161.398 270.059 149.38 275 137.38C275.536 134.726 275.937 132.069 276.34 129.392C285.942 85.5854 322.183 48.0992 358.5 24.8176C359.158 24.3878 359.816 23.958 360.495 23.5151C364.328 21.1058 367.389 19.7857 372 19.3801C372 18.7201 372 18.0601 372 17.3801C398.277 6.39001 423.559 0.0143394 452.25 0.00512695Z" fill="#167FA4"/>
<path d="M0 482.38C7.92 482.38 15.84 482.38 24 482.38C29.7064 488.504 29.7064 488.504 30.9297 491.7C33.4708 497.706 36.9158 503.164 40.25 508.755C41.9353 511.664 43.6137 514.577 45.29 517.491C47.4616 521.16 49.7403 524.765 52 528.38C52.33 513.2 52.66 498.02 53 482.38C59.6 482.38 66.2 482.38 73 482.38C73 509.11 73 535.84 73 563.38C65.08 563.38 57.16 563.38 49 563.38C45.1274 559.028 43.6464 557.323 41.7798 552.305C40.4293 548.972 38.4837 545.999 36.6055 542.943C35.8671 541.688 35.132 540.432 34.4004 539.173C34.0366 538.55 33.6729 537.926 33.2981 537.284C32.9316 536.656 32.5651 536.027 32.1875 535.38C31.0599 533.45 29.9318 531.52 28.8035 529.591C27.793 527.862 26.7836 526.133 25.7742 524.404C24.1991 521.719 22.6012 519.049 21 516.38C20.67 532.22 20.34 548.06 20 564.38C13.4 564.38 6.8 564.38 0 564.38C0 537.32 0 510.26 0 482.38Z" fill="#2B1716"/>
<path d="M348 482.38C355.425 482.298 362.85 482.215 370.5 482.13C373.993 482.076 373.993 482.076 377.557 482.02C379.423 482.008 381.29 481.998 383.156 481.99C384.585 481.959 384.585 481.959 386.042 481.927C395.295 481.923 401.535 485.222 408.234 491.486C413.999 497.671 414.65 503.63 414.383 511.974C413.52 519.647 409.872 526.314 404 531.38C400.625 532.818 400.625 532.818 398 533.38C398 534.37 398 535.36 398 536.38C398.66 536.38 399.32 536.38 400 536.38C401.281 538.153 401.281 538.153 402.715 540.615C403.236 541.499 403.758 542.383 404.295 543.294C404.837 544.23 405.379 545.166 405.938 546.13C407.007 547.959 408.079 549.788 409.152 551.615C409.627 552.431 410.101 553.248 410.59 554.09C411.957 556.412 411.957 556.412 413.678 558.49C415 560.38 415 560.38 415 563.38C395.655 566.075 395.655 566.075 389.912 561.841C386.472 557.895 384.207 553.376 382.073 548.626C380.617 545.579 378.808 542.817 376.94 540.009C376 538.38 376 538.38 376 536.38C373.36 536.38 370.72 536.38 368 536.38C368 545.62 368 554.86 368 564.38C361.4 564.38 354.8 564.38 348 564.38C348 537.32 348 510.26 348 482.38Z" fill="#2B1817"/>
<path d="M826 482.38C832.6 482.38 839.2 482.38 846 482.38C846.495 496.735 846.495 496.735 847 511.38C853.576 504.351 859.993 497.366 865.965 489.818C866.972 488.611 866.972 488.611 868 487.38C868.634 486.458 869.268 485.537 869.922 484.587C874.951 480.981 880.304 481.858 886.312 482.068C887.53 482.09 888.748 482.113 890.002 482.136C893.003 482.195 896.001 482.277 899 482.38C899 485.38 899 485.38 896.898 487.642C895.464 488.997 895.464 488.997 894 490.38C892.963 491.462 891.935 492.552 890.914 493.65C890.379 494.225 889.844 494.8 889.293 495.392C888.742 495.986 888.192 496.58 887.625 497.193C886.766 498.12 886.766 498.12 885.889 499.065C881.847 503.438 877.867 507.852 874 512.38C873.175 513.288 872.35 514.195 871.5 515.13C869.779 517.19 869.779 517.19 870.203 519.228C871.189 521.889 872.549 523.791 874.25 526.068C874.968 527.032 875.686 527.996 876.426 528.99C877.282 530.121 878.141 531.251 879 532.38C879.745 533.359 879.745 533.359 880.505 534.359C884.812 540.01 889.131 545.652 893.464 551.282C894.751 552.957 896.033 554.637 897.312 556.318C898.031 557.255 898.749 558.192 899.488 559.157C901 561.38 901 561.38 901 563.38C879.818 565.426 879.818 565.426 873.979 562.298C870.826 559.469 868.905 555.953 867 552.211C865.321 549.138 863.111 546.49 860.938 543.755C857.126 538.758 857.126 538.758 856 535.38C851.951 537.517 849.403 539.456 847 543.38C846.374 546.979 846.304 550.546 846.25 554.193C846.206 555.661 846.206 555.661 846.16 557.159C846.09 559.566 846.043 561.973 846 564.38C839.4 564.38 832.8 564.38 826 564.38C826 537.32 826 510.26 826 482.38Z" fill="#2C1817"/>
<path d="M463.133 482.267C464.049 482.272 464.966 482.277 465.91 482.282C467.394 482.287 467.394 482.287 468.908 482.292C469.949 482.301 470.99 482.309 472.062 482.318C473.63 482.324 473.63 482.324 475.229 482.331C477.819 482.343 480.41 482.36 483 482.38C486.349 489.438 489.228 496.54 491.789 503.923C495.131 513.464 498.851 522.878 502.47 532.317C503.158 534.112 503.844 535.908 504.53 537.704C505.527 540.319 506.529 542.932 507.531 545.544C507.834 546.341 508.138 547.138 508.45 547.959C509.745 551.324 511.075 554.528 512.717 557.745C514 560.38 514 560.38 514 563.38C506.74 563.38 499.48 563.38 492 563.38C490.416 560.212 489.612 558.166 488.938 554.818C488.412 552.24 487.835 549.885 487 547.38C477.1 547.71 467.2 548.04 457 548.38C455.35 553.33 453.7 558.28 452 563.38C444.74 563.38 437.48 563.38 430 563.38C430.772 558.748 431.229 556.491 433.188 552.568C435.47 547.739 437.321 542.859 439.062 537.818C440.89 532.536 442.765 527.307 444.883 522.134C446.399 518.398 447.854 514.639 449.312 510.88C449.756 509.739 449.756 509.739 450.209 508.574C451.805 504.469 453.393 500.362 454.973 496.251C455.291 495.425 455.61 494.599 455.938 493.747C456.554 492.151 457.167 490.553 457.779 488.954C460.303 482.417 460.303 482.417 463.133 482.267Z" fill="#2B1716"/>
<path d="M284.133 482.267C285.049 482.272 285.966 482.277 286.91 482.282C288.394 482.287 288.394 482.287 289.908 482.292C290.949 482.301 291.99 482.309 293.062 482.318C294.63 482.324 294.63 482.324 296.229 482.331C298.819 482.343 301.41 482.36 304 482.38C306.613 487.796 309.039 493.027 310.5 498.88C311.401 502.471 312.502 505.658 314.117 508.986C318.083 517.532 321.289 526.387 324.625 535.193C325.628 537.84 326.633 540.486 327.641 543.131C328.264 544.765 328.885 546.4 329.501 548.036C330.775 551.377 332.085 554.547 333.712 557.738C335 560.38 335 560.38 335 563.38C327.74 563.38 320.48 563.38 313 563.38C311.416 560.212 310.612 558.166 309.938 554.818C309.412 552.24 308.835 549.885 308 547.38C298.1 547.71 288.2 548.04 278 548.38C276.35 553.33 274.7 558.28 273 563.38C265.74 563.38 258.48 563.38 251 563.38C251.772 558.748 252.229 556.491 254.188 552.568C256.47 547.739 258.321 542.859 260.062 537.818C261.89 532.536 263.765 527.307 265.883 522.134C267.399 518.398 268.854 514.639 270.312 510.88C270.756 509.739 270.756 509.739 271.209 508.574C272.805 504.469 274.393 500.362 275.973 496.251C276.291 495.425 276.61 494.599 276.938 493.747C277.554 492.151 278.167 490.553 278.779 488.954C281.303 482.417 281.303 482.417 284.133 482.267Z" fill="#2A1716"/>
<path d="M175 482.38C181.93 482.38 188.86 482.38 196 482.38C197.32 485.35 198.64 488.32 200 491.38C200.526 492.414 201.052 493.448 201.594 494.513C203.156 497.697 204.336 500.905 205.5 504.255C206.15 506.106 206.15 506.106 206.812 507.993C207.4 509.67 207.4 509.67 208 511.38C209.38 515.167 210.823 518.928 212.293 522.681C212.753 523.86 213.213 525.04 213.688 526.255C214.124 527.366 214.561 528.477 215.012 529.622C216 532.38 216 532.38 216 534.38C216.66 534.38 217.32 534.38 218 534.38C218.248 533.101 218.495 531.823 218.75 530.505C219.717 526.162 221.151 522.213 222.863 518.115C224.134 515.057 225.32 511.974 226.5 508.88C228.617 503.359 230.792 497.865 233 492.38C234.32 489.08 235.64 485.78 237 482.38C244.26 482.38 251.52 482.38 259 482.38C257.189 488.418 255.664 493.363 253.098 498.915C250.843 503.979 248.966 509.199 247 514.38C246.167 516.526 245.334 518.672 244.5 520.818C242.734 525.396 241.064 530 239.438 534.63C237.822 539.195 236.077 543.612 234.047 548.005C231.825 553.045 229.951 558.231 228 563.38C220.74 563.38 213.48 563.38 206 563.38C202.474 556.817 199.97 550.545 197.992 543.361C197.125 540.39 197.125 540.39 195.566 538.005C193.51 534.559 192.338 530.984 191.062 527.193C190.537 525.666 190.009 524.14 189.48 522.615C189.227 521.883 188.974 521.151 188.712 520.398C187.278 516.336 185.643 512.36 184 508.38C182.654 505.052 181.324 501.717 180 498.38C179.55 497.253 179.1 496.127 178.637 494.966C178.179 493.803 177.721 492.641 177.25 491.443C176.822 490.361 176.394 489.28 175.953 488.165C175 485.38 175 485.38 175 482.38Z" fill="#2C1817"/>
<path d="M423.879 175.419C435.515 182.73 442.871 192.06 446.555 205.251C447 207.38 447 207.38 447 210.38C449.97 210.38 452.94 210.38 456 210.38C455.917 209.411 455.835 208.441 455.75 207.443C455.75 198.272 462.442 189.701 468.246 183.111C471.472 179.928 475.076 177.616 479 175.38C479.692 174.964 480.384 174.547 481.098 174.118C490.284 169.501 503.197 169.586 512.984 172.345C523.138 176.237 532.834 183.652 538 193.38C538.68 195.042 539.349 196.707 540 198.38C540.33 198.71 540.66 199.04 541 199.38C541.258 200.872 541.458 202.375 541.625 203.88C541.768 205.102 541.768 205.102 541.914 206.349C541.942 207.019 541.971 207.69 542 208.38C541 209.38 541 209.38 537.938 209.443C536.968 209.422 535.999 209.401 535 209.38C534.794 208.081 534.588 206.781 534.375 205.443C532.248 196.082 525.809 188.727 518 183.38C509.128 178.796 497.777 177.149 488.05 179.94C479.646 183.026 473.034 187.968 468 195.38C467.549 196.032 467.098 196.685 466.633 197.357C461.268 206.94 463.207 221.232 466 231.38C466.66 231.38 467.32 231.38 468 231.38C469.473 233.208 469.473 233.208 471.062 235.63C471.59 236.419 472.117 237.208 472.66 238.021C473.907 240.217 474.688 241.881 475 244.38C473.562 246.13 473.562 246.13 472 247.38C465.082 244.589 461.38 236.74 458.562 230.193C457.026 226.054 456.619 222.763 457 218.38C453.37 218.38 449.74 218.38 446 218.38C446.144 219.432 446.289 220.484 446.438 221.568C446.438 231.403 438.621 240.719 432 247.38C429.501 246.413 428.264 245.928 427.078 243.466C427 241.38 427 241.38 428.109 239.669C428.651 239.12 429.192 238.571 429.75 238.005C432.527 235.016 434.347 232.145 436 228.38C436.66 228.38 437.32 228.38 438 228.38C439.175 208.463 439.175 208.463 430.938 191.068C423.887 183.833 416.63 179.337 406.467 179.138C393.817 179.091 385.307 181.186 376 190.38C371.111 196.103 368.73 202.111 367 209.38C365 209.423 363 209.421 361 209.38C360.67 209.05 360.34 208.72 360 208.38C360.378 197.995 365.396 190.148 372.398 182.712C386.545 170.031 406.795 166.847 423.879 175.419Z" fill="#241A1B"/>
<path d="M516 193.38C516 194.04 516 194.7 516 195.38C515.06 195.579 515.06 195.579 514.102 195.783C512.876 196.047 512.876 196.047 511.625 196.318C510.813 196.492 510.001 196.666 509.164 196.845C506.971 197.303 506.971 197.303 505 198.38C505.355 202.58 505.7 206.498 507.062 210.505C508.172 213.908 508.142 216.824 508 220.38C507.31 220.732 506.621 221.084 505.91 221.447C500.053 224.524 494.858 227.815 489.777 232.06C488 233.38 488 233.38 486 233.38C484.14 227.814 483.604 222.796 483.562 216.943C483.53 216.135 483.497 215.327 483.463 214.495C483.401 207.548 485.695 202.88 490.443 197.852C497.453 191.534 507.139 190.78 516 193.38Z" fill="#201516"/>
<path d="M406.438 194.068C409.798 196.028 412.407 198.473 415 201.38C415.33 201.71 415.66 202.04 416 202.38C416.041 204.046 416.043 205.714 416 207.38C415.423 206.906 414.845 206.431 414.25 205.943C411.878 204.099 411.878 204.099 408 203.38C408.33 206.68 408.66 209.98 409 213.38C409.66 213.38 410.32 213.38 411 213.38C411.33 214.04 411.66 214.7 412 215.38C412.99 215.38 413.98 215.38 415 215.38C415.33 213.07 415.66 210.76 416 208.38C418.352 210.732 418.256 211.187 418.266 214.372C418.269 215.554 418.269 215.554 418.273 216.759C418.266 217.583 418.258 218.406 418.25 219.255C418.258 220.071 418.265 220.887 418.273 221.728C418.271 222.518 418.268 223.308 418.266 224.122C418.263 224.843 418.261 225.563 418.259 226.305C417.963 228.676 417.172 230.314 416 232.38C411.091 230.587 407.018 227.965 402.672 225.099C400.152 223.412 400.152 223.412 397.953 222.349C396.312 221.505 396.312 221.505 394 219.38C393.317 216.268 393.39 213.5 394 210.38C394.98 209.032 395.98 207.698 397 206.38C397.269 203.662 397.137 201.122 397 198.38C393.735 196.496 390.719 195.887 387 195.38C387 194.72 387 194.06 387 193.38C393.158 191.328 400.51 191.262 406.438 194.068Z" fill="#211617"/>
<path d="M524 165.38C529.828 169.574 534.949 174.793 538 181.38C537.505 182.865 537.505 182.865 537 184.38C536.34 183.679 535.68 182.978 535 182.255C526.836 174.25 516.784 168.234 505 167.943C498.63 168.294 492.293 169.365 486 170.38C496.779 159.213 510.638 156.464 524 165.38Z" fill="#6C322D"/>
<path d="M408 163.38C410.842 165.193 413.449 167.179 416 169.38C413.394 170.683 412.423 170.135 409.625 169.443C398.076 167.037 387.462 167.895 377.199 174.064C374.732 175.764 372.353 177.526 370 179.38C368.969 180.185 367.938 180.989 366.875 181.818C366.256 182.333 365.637 182.849 365 183.38C366.035 175.927 371.22 170.524 377 166.005C386.951 159.143 396.952 158.484 408 163.38Z" fill="#662B25"/>
<path d="M492 238.38C492.66 238.71 493.32 239.04 494 239.38C493.15 240.067 492.299 240.753 491.423 241.46C485.512 246.549 481.291 250.544 480.557 258.67C480.522 261.425 480.551 264.13 480.638 266.879C480.641 268.398 480.639 269.917 480.632 271.436C480.629 275.524 480.699 279.607 480.783 283.694C480.859 287.978 480.865 292.262 480.88 296.546C480.917 304.643 481.015 312.738 481.136 320.833C481.27 330.057 481.336 339.28 481.396 348.505C481.521 367.464 481.732 386.422 482 405.38C481.34 405.38 480.68 405.38 480 405.38C479.719 385.231 479.508 365.081 479.378 344.93C479.316 335.573 479.232 326.217 479.095 316.86C478.975 308.702 478.898 300.544 478.871 292.384C478.855 288.066 478.819 283.751 478.731 279.434C478.649 275.363 478.625 271.295 478.643 267.223C478.639 265.736 478.616 264.248 478.57 262.762C478.384 256.484 478.336 250.854 482.763 245.974C485.651 243.167 488.737 240.734 492 238.38Z" fill="#5B8694"/>
<path d="M429 252.38C432.814 253.906 434.966 254.908 438 257.38C435.237 256.857 432.674 256.271 430 255.38C430 305.54 430 355.7 430 407.38C429.67 407.38 429.34 407.38 429 407.38C429 356.23 429 305.08 429 252.38Z" fill="#6DABC0"/>
<path d="M523 164.38C523 164.71 523 165.04 523 165.38C507.16 165.875 507.16 165.875 491 166.38C499.795 157.585 512.791 158.606 523 164.38Z" fill="#82342C"/>
<path d="M408 163.38C408.66 164.04 409.32 164.7 410 165.38C394.16 165.875 394.16 165.875 378 166.38C386.419 157.962 397.618 159.028 408 163.38Z" fill="#81322A"/>
<path d="M462 244.38C462.66 244.71 463.32 245.04 464 245.38C463.01 247.36 462.02 249.34 461 251.38C460.34 251.38 459.68 251.38 459 251.38C458.567 252.308 458.567 252.308 458.125 253.255C457 255.38 457 255.38 455 257.38C451.781 257.863 449.037 257.54 446 256.38C443.468 253.648 441.701 250.683 440 247.38C440.33 246.72 440.66 246.06 441 245.38C441.34 245.885 441.681 246.391 442.031 246.911C444.889 250.748 444.889 250.748 448.934 253.126C451.314 253.354 452.755 253.237 455 252.38C457.735 249.987 459.892 247.331 462 244.38Z" fill="#4C4343"/>
<path d="M492 238.38C492.66 238.71 493.32 239.04 494 239.38C492.722 240.362 492.722 240.362 491.419 241.364C485.704 246.129 481.444 250.237 480.696 257.905C480.548 261.825 480.615 265.711 480.75 269.63C480.762 271.262 480.769 272.893 480.77 274.525C480.784 278.48 480.871 282.427 481 286.38C480.67 286.38 480.34 286.38 480 286.38C479.701 281.313 479.484 276.251 479.341 271.176C479.281 269.456 479.199 267.736 479.095 266.018C478.201 250.956 478.201 250.956 482.725 245.726C485.585 242.921 488.67 240.599 492 238.38Z" fill="#5D9DB4"/>
<path d="M380 72.3801C380.66 72.7101 381.32 73.0401 382 73.3801C372.487 78.1134 363.574 79.4804 353.062 80.1926C352.221 80.258 351.379 80.3233 350.512 80.3906C349.715 80.4349 348.919 80.4791 348.098 80.5247C347.381 80.5695 346.664 80.6144 345.926 80.6606C343.429 80.297 342.584 79.2793 341 77.3801C342.974 77.4149 342.974 77.4149 344.988 77.4504C355.935 77.5869 366.211 77.7007 376.562 73.6926C377.697 73.2595 378.831 72.8264 380 72.3801Z" fill="#884B44"/>
<path d="M440 245.38C445.745 250.104 445.745 250.104 447.5 252.005C449.715 254.036 452.295 255.118 455 256.38C455 256.71 455 257.04 455 257.38C451.8 257.558 449.049 257.411 446 256.38C443.146 253.428 440 249.639 440 245.38Z" fill="#382D2E"/>
<path d="M352 95.3801C352.66 95.7101 353.32 96.0401 354 96.3801C349.05 101.33 344.1 106.28 339 111.38C338.34 111.05 337.68 110.72 337 110.38C341.719 104.98 346.304 99.762 352 95.3801Z" fill="#723D38"/>
<path d="M438 137.38C435.561 139.819 434.786 139.667 431.43 139.794C430.086 139.852 430.086 139.852 428.715 139.911C427.778 139.942 426.841 139.973 425.875 140.005C424.93 140.044 423.985 140.083 423.012 140.122C420.675 140.217 418.338 140.302 416 140.38C419.463 138.072 422.417 137.69 426.438 137.193C427.106 137.098 427.774 137.003 428.463 136.906C431.876 136.462 434.728 136.2 438 137.38Z" fill="#7B5B58"/>
<path d="M522 48.3801C522.99 48.7101 523.98 49.0401 525 49.3801C524.67 50.7001 524.34 52.0201 524 53.3801C523.67 53.3801 523.34 53.3801 523 53.3801C522.89 54.0208 522.781 54.6615 522.668 55.3215C521.675 60.7363 520.375 65.4134 518 70.3801C517 68.3801 517 68.3801 517.488 66.6028C517.896 65.5335 517.896 65.5335 518.312 64.4426C520.179 59.1845 521.126 53.8787 522 48.3801Z" fill="#B6847F"/>
<path d="M475 177.38C475.66 177.71 476.32 178.04 477 178.38C472.38 183 467.76 187.62 463 192.38C463 187.477 466.702 184.767 470 181.38C471.625 179.997 473.274 178.636 475 177.38Z" fill="#463D3D"/>
<path d="M512 56.3801C512.99 56.8751 512.99 56.8751 514 57.3801C514.852 60.1809 514.852 60.1809 515.625 63.6926C515.885 64.8438 516.146 65.9949 516.414 67.1809C517 70.3801 517 70.3801 517 74.3801C516.01 74.3801 515.02 74.3801 514 74.3801C513.939 73.4997 513.879 72.6193 513.816 71.7122C513.733 70.5507 513.649 69.3893 513.562 68.1926C513.481 67.0441 513.4 65.8955 513.316 64.7122C513.046 61.8641 512.625 59.168 512 56.3801Z" fill="#AF7F7A"/>
<path d="M492 238.38C492.66 238.71 493.32 239.04 494 239.38C490.04 243.34 486.08 247.3 482 251.38C481.67 250.39 481.34 249.4 481 248.38C486.445 243.43 486.445 243.43 492 238.38Z" fill="#2C8AAA"/>
<path d="M417 156.38C415.824 158.396 415.824 158.396 414 160.38C411.52 160.552 411.52 160.552 408.812 160.13C407.911 160.001 407.01 159.872 406.082 159.739C405.051 159.562 405.051 159.562 404 159.38C405 157.38 405 157.38 406.562 156.755C410.064 156.216 413.458 156.321 417 156.38Z" fill="#5D3F3C"/>
<path d="M287 297.38C286.362 297.646 285.724 297.911 285.066 298.185C284.24 298.538 283.414 298.891 282.562 299.255C281.739 299.603 280.915 299.951 280.066 300.31C277.843 301.205 277.843 301.205 277 303.38C276.01 303.05 275.02 302.72 274 302.38C274 301.39 274 300.4 274 299.38C275.789 298.851 277.581 298.332 279.375 297.818C280.373 297.528 281.37 297.238 282.398 296.939C285 296.38 285 296.38 287 297.38Z" fill="#3BA3C7"/>
<path d="M615 282.38C613.125 286.255 613.125 286.255 612 287.38C611.809 291.012 611.809 291.012 613 294.38C612.01 294.05 611.02 293.72 610 293.38C609.25 290.13 609.25 290.13 609 286.38C611.974 282.38 611.974 282.38 615 282.38Z" fill="#A4D1E1"/>
<path d="M377 180.38C375.444 184.199 373.044 186.641 370 189.38C369.34 189.38 368.68 189.38 368 189.38C369.543 185.592 372.553 180.38 377 180.38Z" fill="#463C3C"/>
<path d="M508 112.38C508.66 112.38 509.32 112.38 510 112.38C510 117.33 510 122.28 510 127.38C509.67 127.38 509.34 127.38 509 127.38C508.856 126.143 508.711 124.905 508.562 123.63C508.286 121.361 507.972 119.277 507.375 117.068C507 115.38 507 115.38 508 112.38Z" fill="#93706D"/>
<path d="M611 299.38C609.125 303.255 609.125 303.255 608 304.38C607.809 308.012 607.809 308.012 609 311.38C608.01 311.05 607.02 310.72 606 310.38C605.633 302.914 605.633 302.914 607.375 300.38C609 299.38 609 299.38 611 299.38Z" fill="#AED4E2"/>
<path d="M440 245.38C445.875 250.005 445.875 250.005 447 253.38C446.01 253.71 445.02 254.04 444 254.38C440 247.63 440 247.63 440 245.38Z" fill="#4E4545"/>
<path d="M495 195.38C493.559 198.742 491.752 200.972 489 203.38C488.34 203.38 487.68 203.38 487 203.38C488.517 199.84 490.753 195.38 495 195.38Z" fill="#392F30"/>
<path d="M607 316.38C606.711 316.916 606.422 317.453 606.125 318.005C604.833 320.733 603.914 323.506 603 326.38C602.67 326.38 602.34 326.38 602 326.38C601.633 319.897 601.633 319.897 603.375 317.443C605 316.38 605 316.38 607 316.38Z" fill="#C1DCE5"/>
<path d="M375 167.38C375.66 167.71 376.32 168.04 377 168.38C375.384 170.421 373.714 172.421 372 174.38C371.34 174.38 370.68 174.38 370 174.38C371.293 171.496 372.659 169.508 375 167.38Z" fill="#7B4C47"/>
</svg>
