<svg width="24" height="44" viewBox="0 0 24 44" fill="none" xmlns="http://www.w3.org/2000/svg">
    <path d="M14 21H8M10 25H8M16 17H8M20 16.8V27.2C20 28.8802 20 29.7202 19.673 30.362C19.3854 30.9265 18.9265 31.3854 18.362 31.673C17.7202 32 16.8802 32 15.2 32H8.8C7.11984 32 6.27976 32 5.63803 31.673C5.07354 31.3854 4.6146 30.9265 4.32698 30.362C4 29.7202 4 28.8802 4 27.2V16.8C4 15.1198 4 14.2798 4.32698 13.638C4.6146 13.0735 5.07354 12.6146 5.63803 12.327C6.27976 12 7.11984 12 8.8 12H15.2C16.8802 12 17.7202 12 18.362 12.327C18.9265 12.6146 19.3854 13.0735 19.673 13.638C20 14.2798 20 15.1198 20 16.8Z" stroke="#0047AB" stroke-width="1.8" stroke-linecap="round" stroke-linejoin="round"/>
</svg>
