<svg width="24" height="44" viewBox="0 0 24 44" fill="none" xmlns="http://www.w3.org/2000/svg">
    <path d="M9.35419 31C10.0593 31.6224 10.9856 32 12 32C13.0145 32 13.9407 31.6224 14.6458 31M18 18C18 16.4087 17.3679 14.8826 16.2427 13.7574C15.1174 12.6321 13.5913 12 12 12C10.4087 12 8.8826 12.6321 7.75738 13.7574C6.63216 14.8826 6.00002 16.4087 6.00002 18C6.00002 21.0902 5.22049 23.206 4.34968 24.6054C3.61515 25.7859 3.24788 26.3761 3.26134 26.5408C3.27626 26.7231 3.31488 26.7926 3.46179 26.9016C3.59448 27 4.19261 27 5.38887 27H18.6112C19.8074 27 20.4056 27 20.5382 26.9016C20.6852 26.7926 20.7238 26.7231 20.7387 26.5408C20.7522 26.3761 20.3849 25.7859 19.6504 24.6054C18.7795 23.206 18 21.0902 18 18Z" stroke="#0047AB" stroke-width="1.8" stroke-linecap="round" stroke-linejoin="round"/>
</svg>
