<svg xmlns="http://www.w3.org/2000/svg" width="17.801" height="19.801" viewBox="0 0 17.801 19.801">
  <g id="işlemler" transform="translate(-3.1 -2.1)">
    <path id="Path_2879" data-name="Path 2879" d="M8.8,9h6.4m0,5H8.8M20,21V7.8a7.453,7.453,0,0,0-.327-3.162,3,3,0,0,0-1.311-1.311A7.453,7.453,0,0,0,15.2,3H8.8a7.453,7.453,0,0,0-3.162.327A3,3,0,0,0,4.327,4.638,7.453,7.453,0,0,0,4,7.8V21l2.75-2,2.5,2L12,19l2.75,2,2.5-2Z" fill="none" stroke="#0047ab" stroke-linecap="round" stroke-linejoin="round" stroke-width="1.8"/>
    <path id="Path_2880" data-name="Path 2880" d="M8.8,9h6.4m0,5H8.8" fill="none" stroke="#d4436d" stroke-linecap="round" stroke-linejoin="round" stroke-width="1.8"/>
  </g>
</svg>
