<svg width="24" height="32" viewBox="0 0 24 32" fill="none" xmlns="http://www.w3.org/2000/svg">
<path d="M20 23V20H6.99997C5.34312 20 3.99997 21.3431 3.99997 23M8.79997 26H16.8C17.9201 26 18.4801 26 18.908 25.782C19.2843 25.5903 19.5902 25.2843 19.782 24.908C20 24.4802 20 23.9201 20 22.8V9.2C20 8.07989 20 7.51984 19.782 7.09202C19.5902 6.71569 19.2843 6.40973 18.908 6.21799C18.4801 6 17.9201 6 16.8 6H8.79997C7.11981 6 6.27973 6 5.638 6.32698C5.07351 6.6146 4.61457 7.07354 4.32695 7.63803C3.99997 8.27976 3.99997 9.11984 3.99997 10.8V21.2C3.99997 22.8802 3.99997 23.7202 4.32695 24.362C4.61457 24.9265 5.07351 25.3854 5.638 25.673C6.27973 26 7.11981 26 8.79997 26Z" stroke="#777E92" stroke-width="1.8" stroke-linecap="round" stroke-linejoin="round"/>
<path d="M10.6723 11.6408C10.9542 12.2279 11.3384 12.7781 11.8251 13.2648C12.3117 13.7514 12.8619 14.1357 13.449 14.4175C13.4995 14.4418 13.5248 14.4539 13.5567 14.4632C13.6703 14.4963 13.8097 14.4725 13.9059 14.4037C13.9329 14.3843 13.9561 14.3612 14.0024 14.3149C14.144 14.1733 14.2147 14.1025 14.2859 14.0562C14.5544 13.8816 14.9005 13.8816 15.169 14.0562C15.2402 14.1025 15.311 14.1733 15.4526 14.3149L15.5315 14.3938C15.7467 14.609 15.8543 14.7166 15.9128 14.8322C16.029 15.0621 16.029 15.3335 15.9128 15.5634C15.8543 15.679 15.7467 15.7866 15.5315 16.0018L15.4676 16.0657C15.2531 16.2802 15.1459 16.3874 15.0001 16.4693C14.8383 16.5602 14.587 16.6256 14.4014 16.625C14.2342 16.6245 14.1199 16.5921 13.8913 16.5272C12.6627 16.1785 11.5035 15.5206 10.5364 14.5535C9.56924 13.5863 8.91133 12.4271 8.56264 11.1986C8.49776 10.97 8.46531 10.8557 8.46482 10.6884C8.46426 10.5028 8.52962 10.2515 8.62051 10.0897C8.70242 9.94394 8.80966 9.83669 9.02416 9.62219L9.088 9.55835C9.30323 9.34312 9.41085 9.2355 9.52643 9.17704C9.75629 9.06078 10.0277 9.06078 10.2576 9.17704C10.3732 9.2355 10.4808 9.34312 10.696 9.55835L10.775 9.63727C10.9165 9.77886 10.9873 9.84966 11.0336 9.92085C11.2082 10.1893 11.2082 10.5354 11.0336 10.8039C10.9873 10.8751 10.9165 10.9459 10.775 11.0875C10.7287 11.1338 10.7055 11.1569 10.6861 11.184C10.6173 11.2801 10.5935 11.4195 10.6266 11.5331C10.6359 11.565 10.648 11.5903 10.6723 11.6408Z" fill="#777E92"/>
</svg>
