<svg width="64" height="64" viewBox="0 0 64 64" fill="none" xmlns="http://www.w3.org/2000/svg">
<path d="M32.0007 6.33325L41.6007 15.9333C48.0007 -0.866749 65.8673 16.9999 49.0673 23.3999L58.6673 32.9999L49.0673 42.5999C42.6673 25.7999 24.8007 43.6666 41.6007 50.0666L32.0007 59.6666L22.4007 50.0666C16.0007 66.8666 -1.86602 48.9999 14.934 42.5999L5.33398 32.9999L14.934 23.3999C21.334 40.1999 39.2007 22.3333 22.4007 15.9333L32.0007 6.33325Z" fill="#98ACC3"/>
<path d="M32.0007 5.33325L41.6007 14.9333C48.0007 -1.86675 65.8673 15.9999 49.0673 22.3999L58.6673 31.9999L49.0673 41.5999C42.6673 24.7999 24.8007 42.6666 41.6007 49.0666L32.0007 58.6666L22.4007 49.0666C16.0007 65.8666 -1.86602 47.9999 14.934 41.5999L5.33398 31.9999L14.934 22.3999C21.334 39.1999 39.2007 21.3333 22.4007 14.9333L32.0007 5.33325Z" fill="url(#paint0_linear_7233_23914)"/>
<defs>
<linearGradient id="paint0_linear_7233_23914" x1="39.4544" y1="5.33325" x2="39.4544" y2="69.3333" gradientUnits="userSpaceOnUse">
<stop stop-color="#E5EAEE"/>
<stop offset="1" stop-color="#B2C1D2"/>
</linearGradient>
</defs>
</svg>
