<svg xmlns="http://www.w3.org/2000/svg" width="19.811" height="20.801" viewBox="0 0 19.811 20.801">
  <g id="Group_631" data-name="Group 631" transform="translate(16666.9 16191.9)">
    <g id="qr-code-01" transform="translate(-16669 -16193)">
      <path id="Path_2881" data-name="Path 2881" d="M7,12h5v5M3.01,12H3m5.01,5H8m4.01,4H12m9.01-9H21M3,17H4.5m11-5h2M3,21H8M12,2V8m5.6,13h1.8a2.484,2.484,0,0,0,1.054-.109,1,1,0,0,0,.437-.437A2.484,2.484,0,0,0,21,19.4V17.6a2.484,2.484,0,0,0-.109-1.054,1,1,0,0,0-.437-.437A2.484,2.484,0,0,0,19.4,16H17.6a2.484,2.484,0,0,0-1.054.109,1,1,0,0,0-.437.437A2.484,2.484,0,0,0,16,17.6v1.8a2.484,2.484,0,0,0,.109,1.054,1,1,0,0,0,.437.437A2.484,2.484,0,0,0,17.6,21Zm0-13h1.8a2.484,2.484,0,0,0,1.054-.109,1,1,0,0,0,.437-.437A2.484,2.484,0,0,0,21,6.4V4.6a2.484,2.484,0,0,0-.109-1.054,1,1,0,0,0-.437-.437A2.484,2.484,0,0,0,19.4,3H17.6a2.484,2.484,0,0,0-1.054.109,1,1,0,0,0-.437.437A2.484,2.484,0,0,0,16,4.6V6.4a2.484,2.484,0,0,0,.109,1.054,1,1,0,0,0,.437.437A2.484,2.484,0,0,0,17.6,8ZM4.6,8H6.4a2.484,2.484,0,0,0,1.054-.109,1,1,0,0,0,.437-.437A2.484,2.484,0,0,0,8,6.4V4.6a2.484,2.484,0,0,0-.109-1.054,1,1,0,0,0-.437-.437A2.484,2.484,0,0,0,6.4,3H4.6a2.484,2.484,0,0,0-1.054.109,1,1,0,0,0-.437.437A2.484,2.484,0,0,0,3,4.6V6.4a2.484,2.484,0,0,0,.109,1.054,1,1,0,0,0,.437.437A2.484,2.484,0,0,0,4.6,8Z" fill="none" stroke="#0047ab" stroke-linecap="round" stroke-linejoin="round" stroke-width="1.8"/>
      <path id="Path_2882" data-name="Path 2882" d="M7,12h5v5M3.01,12H3m5.01,5H8m4.01,4H12M3,17H4.5m11-5h2" fill="none" stroke="#d4436d" stroke-linecap="round" stroke-linejoin="round" stroke-width="1.8"/>
    </g>
  </g>
</svg>
