<svg width="24" height="24" viewBox="0 0 24 24" fill="none" xmlns="http://www.w3.org/2000/svg">
<path d="M12 15.5H7.5C6.10444 15.5 5.40665 15.5 4.83886 15.6722C3.56045 16.06 2.56004 17.0605 2.17224 18.3389C2 18.9067 2 19.6044 2 21M14.5 7.5C14.5 9.98528 12.4853 12 10 12C7.51472 12 5.5 9.98528 5.5 7.5C5.5 5.01472 7.51472 3 10 3C12.4853 3 14.5 5.01472 14.5 7.5ZM17.4655 20.9788L17.6925 21.4894C17.76 21.6414 17.8702 21.7705 18.0096 21.8612C18.149 21.9518 18.3118 22 18.4781 22C18.6444 22 18.8071 21.9518 18.9465 21.8612C19.086 21.7705 19.1961 21.6414 19.2636 21.4894L19.4906 20.9788C19.5714 20.7976 19.7074 20.6466 19.8791 20.5472C20.0518 20.4475 20.2517 20.4051 20.4501 20.4259L21.0056 20.4851C21.1709 20.5025 21.3378 20.4717 21.486 20.3962C21.6341 20.3208 21.7572 20.2039 21.8403 20.0599C21.9235 19.916 21.9631 19.751 21.9544 19.585C21.9457 19.419 21.8889 19.259 21.7911 19.1246L21.4622 18.6727C21.3451 18.5106 21.2825 18.3155 21.2835 18.1155C21.2835 17.9161 21.3466 17.7218 21.4639 17.5605L21.7928 17.1086C21.8907 16.9742 21.9474 16.8142 21.9561 16.6482C21.9649 16.4822 21.9252 16.3172 21.842 16.1733C21.7589 16.0293 21.6358 15.9124 21.4877 15.837C21.3395 15.7615 21.1726 15.7307 21.0073 15.7481L20.4518 15.8073C20.2534 15.8281 20.0536 15.7857 19.8808 15.686C19.7088 15.586 19.5728 15.4342 19.4923 15.2522L19.2636 14.7416C19.1961 14.5896 19.086 14.4605 18.9465 14.3699C18.8071 14.2792 18.6444 14.231 18.4781 14.231C18.3118 14.231 18.149 14.2792 18.0096 14.3699C17.8702 14.4605 17.76 14.5896 17.6925 14.7416L17.4655 15.2522C17.3851 15.4342 17.2491 15.586 17.0771 15.686C16.9043 15.7857 16.7044 15.8281 16.506 15.8073L15.9488 15.7481C15.7835 15.7307 15.6166 15.7615 15.4684 15.837C15.3203 15.9124 15.1972 16.0293 15.1141 16.1733C15.0309 16.3172 14.9913 16.4822 15 16.6482C15.0087 16.8142 15.0655 16.9742 15.1633 17.1086L15.4922 17.5605C15.6095 17.7218 15.6726 17.9161 15.6726 18.1155C15.6726 18.315 15.6095 18.5093 15.4922 18.6706L15.1633 19.1225C15.0655 19.2569 15.0087 19.4168 15 19.5828C14.9913 19.7488 15.0309 19.9138 15.1141 20.0578C15.1973 20.2017 15.3204 20.3185 15.4685 20.3939C15.6167 20.4694 15.7835 20.5003 15.9488 20.4829L16.5043 20.4238C16.7027 20.4029 16.9026 20.4454 17.0753 20.545C17.248 20.6447 17.3846 20.7966 17.4655 20.9788ZM18.4792 18.1155H18.5859V18.2148H18.4792V18.1155Z" stroke="#0047AB" stroke-width="1.8" stroke-linecap="round" stroke-linejoin="round"/>
</svg>
