<svg xmlns="http://www.w3.org/2000/svg" xmlns:xlink="http://www.w3.org/1999/xlink" width="211.593" height="168.046" viewBox="0 0 211.593 168.046">
  <defs>
    <linearGradient id="linear-gradient" x1="0.844" y1="1.137" x2="0.387" y2="0.307" gradientUnits="objectBoundingBox">
      <stop offset="0" stop-color="#c6d1ff"/>
      <stop offset="0.583" stop-color="#e6d5f4"/>
      <stop offset="0.997" stop-color="#ffd9ec"/>
    </linearGradient>
  </defs>
  <g id="email" transform="translate(0 -52.685)">
    <g id="Group_1115" data-name="Group 1115" transform="translate(0 63.196)">
      <path id="Path_9429" data-name="Path 9429" d="M207.407,109.305C198.167,85.8,169.706,71.7,145.6,81.027c-27.516,10.649-18.393,54.416-43.386,63.266-13.5,4.781-33.459-13.077-47.1-15.816-25.135-5.046-47.89,12.689-53.493,37.249C-4.094,190.783,5.074,224.249,32.6,231.05c32.793,8.1,49.874-21.378,77.384-29.842,28.23-8.686,59.619,11.829,82.99-13.132,17.266-18.44,23.579-55.49,14.43-78.77Z" transform="translate(0 -78.118)" fill="url(#linear-gradient)"/>
    </g>
    <g id="Group_1126" data-name="Group 1126" transform="translate(22.652 52.685)">
      <path id="Path_9430" data-name="Path 9430" d="M232.159,136.632a29.557,29.557,0,0,0-57.207-10.442H68.078a8.265,8.265,0,0,0-8.265,8.265v91.5a8.265,8.265,0,0,0,8.265,8.265H213.7a8.265,8.265,0,0,0,8.265-8.265V158.949A29.48,29.48,0,0,0,232.159,136.632Z" transform="translate(-57.747 -84.598)" fill="#2626bc" opacity="0.1"/>
      <g id="Group_1125" data-name="Group 1125" transform="translate(0 10.08)">
        <g id="Group_1117" data-name="Group 1117" transform="translate(2.065 21.18)">
          <path id="Path_9431" data-name="Path 9431" d="M213.7,236.358H68.077a8.265,8.265,0,0,1-8.265-8.265v-91.5a8.265,8.265,0,0,1,8.265-8.265H213.7a8.265,8.265,0,0,1,8.265,8.265v91.5A8.265,8.265,0,0,1,213.7,236.358Z" transform="translate(-59.811 -128.326)" fill="#9fb0fe"/>
          <g id="Group_1116" data-name="Group 1116" transform="translate(0 0.002)">
            <path id="Path_9432" data-name="Path 9432" d="M382.732,136.6v34.921a29.554,29.554,0,0,1-40.3-43.186h32.036a8.266,8.266,0,0,1,8.265,8.265Z" transform="translate(-220.575 -128.331)" fill="#8399fe"/>
            <path id="Path_9433" data-name="Path 9433" d="M221.967,136.6v10.418L148.443,203.5a12.4,12.4,0,0,1-15.109,0L59.81,147.015V136.6a8.266,8.266,0,0,1,8.265-8.265H213.7A8.266,8.266,0,0,1,221.967,136.6Z" transform="translate(-59.81 -128.331)" fill="#8399fe"/>
            <path id="Path_9434" data-name="Path 9434" d="M143.407,222.5l78.56,60.347a8.265,8.265,0,0,1-8.265,8.265H68.077a8.265,8.265,0,0,1-8.265-8.265l78.56-60.347a4.132,4.132,0,0,1,5.035,0Z" transform="translate(-59.811 -183.079)" fill="#8399fe"/>
          </g>
          <path id="Path_9435" data-name="Path 9435" d="M244.119,242.3l-20.75,15.94a12.4,12.4,0,0,1-15.109,0L187.51,242.3,213.3,222.5a4.13,4.13,0,0,1,5.034,0Z" transform="translate(-134.736 -183.077)" fill="#6583fe"/>
          <path id="Path_9436" data-name="Path 9436" d="M138.372,196.939l-78.56-60.348a8.265,8.265,0,0,1,8.265-8.265H213.7a8.265,8.265,0,0,1,8.265,8.265l-78.56,60.348A4.134,4.134,0,0,1,138.372,196.939Z" transform="translate(-59.811 -128.326)" fill="#b7c5ff"/>
        </g>
        <g id="Group_1123" data-name="Group 1123" transform="translate(63.736 104.926)">
          <path id="Path_9437" data-name="Path 9437" d="M349.16,344.259H335.88a2.067,2.067,0,0,1-2.066-2.066v-9.155a2.067,2.067,0,0,1,2.066-2.066h13.28a2.067,2.067,0,0,1,2.066,2.066v9.155A2.066,2.066,0,0,1,349.16,344.259Z" transform="translate(-282.248 -330.971)" fill="#02ffb3"/>
          <g id="Group_1122" data-name="Group 1122" transform="translate(0 0.732)">
            <g id="Group_1119" data-name="Group 1119" transform="translate(28.929)">
              <g id="Group_1118" data-name="Group 1118">
                <path id="Path_9438" data-name="Path 9438" d="M292.607,336.876H281.1a2.066,2.066,0,0,1,0-4.133h11.5a2.066,2.066,0,1,1,0,4.133Z" transform="translate(-279.038 -332.743)" fill="#fff"/>
              </g>
            </g>
            <g id="Group_1121" data-name="Group 1121" transform="translate(0 8.423)">
              <g id="Group_1120" data-name="Group 1120">
                <path id="Path_9439" data-name="Path 9439" d="M251.535,357.258H211.1a2.066,2.066,0,1,1,0-4.133h40.431a2.066,2.066,0,1,1,0,4.133Z" transform="translate(-209.038 -353.125)" fill="#fff"/>
              </g>
            </g>
          </g>
        </g>
        <g id="Group_1124" data-name="Group 1124">
          <circle id="Ellipse_98" data-name="Ellipse 98" cx="29.556" cy="29.556" r="29.556" transform="translate(115.301 2.066)" fill="#d42a0f"/>
          <path id="Path_9440" data-name="Path 9440" d="M199.67,140.32a31.675,31.675,0,1,0-19.367-6.652L139.216,165.23a2.068,2.068,0,0,1-2.518,0L59.02,105.56a6.209,6.209,0,0,1,6.125-5.238h94.789a2.066,2.066,0,0,0,0-4.133H65.145a10.343,10.343,0,0,0-10.332,10.332v91.5a10.343,10.343,0,0,0,10.332,10.332H210.769A10.343,10.343,0,0,0,221.1,198.022V143.413a2.066,2.066,0,0,0-4.133,0v50.416l-54.1-41.558L183.92,136.1a31.415,31.415,0,0,0,15.75,4.219Zm-86.625,11.952-54.1,41.558V110.714Zm103.841,46.706a6.2,6.2,0,0,1-6.118,5.243H65.145a6.2,6.2,0,0,1-6.118-5.243l57.41-44.1,17.743,13.63a6.206,6.206,0,0,0,7.553,0l17.743-13.63ZM172.18,108.7a27.489,27.489,0,1,1,27.489,27.489A27.52,27.52,0,0,1,172.18,108.7Z" transform="translate(-54.813 -77.076)" fill="#004f62"/>
        </g>
        <text id="_1" data-name="1" transform="translate(144.348 46.92)" fill="#fff" font-size="45" font-family="Montserrat-SemiBold, Montserrat" font-weight="600"><tspan x="-8" y="0">1</tspan></text>
      </g>
      <path id="Path_9443" data-name="Path 9443" d="M322.324,64.664a5.989,5.989,0,1,1,4.237-1.752A5.972,5.972,0,0,1,322.324,64.664Zm0-7.848a1.859,1.859,0,1,0,1.315.544A1.854,1.854,0,0,0,322.324,56.816Z" transform="translate(-208.257 -52.685)" fill="#00eca2"/>
      <path id="Path_9444" data-name="Path 9444" d="M210.034,442.308a5.989,5.989,0,1,1,4.237-1.752A5.974,5.974,0,0,1,210.034,442.308Zm0-7.848a1.859,1.859,0,1,0,1.315.544A1.854,1.854,0,0,0,210.034,434.46Z" transform="translate(-142.372 -274.262)" fill="#00eca2"/>
      <path id="Path_9445" data-name="Path 9445" d="M280.7,83.106a2.059,2.059,0,0,1-1.461-.605l-2.465-2.465L274.307,82.5a2.066,2.066,0,0,1-2.922-2.922l3.926-3.926a2.066,2.066,0,0,1,2.922,0l3.926,3.926a2.066,2.066,0,0,1-1.461,3.527Z" transform="translate(-181.528 -65.806)" fill="#d42a0f" opacity="0.55"/>
      <path id="Path_9446" data-name="Path 9446" d="M425.665,428.881a2.059,2.059,0,0,1-1.461-.605l-2.465-2.465-2.465,2.465a2.066,2.066,0,1,1-2.922-2.922l3.926-3.926a2.066,2.066,0,0,1,2.922,0l3.926,3.926a2.066,2.066,0,0,1-1.461,3.527Z" transform="translate(-266.585 -268.684)" fill="#d42a0f" opacity="0.55"/>
      <path id="Path_9447" data-name="Path 9447" d="M164.8,433.631a2.059,2.059,0,0,1-1.461-.605l-2.465-2.465-2.465,2.465a2.066,2.066,0,1,1-2.922-2.922l3.926-3.926a2.066,2.066,0,0,1,2.922,0l3.926,3.926a2.066,2.066,0,0,1-1.461,3.527Z" transform="translate(-113.528 -271.471)" fill="#004f62" opacity="0.54"/>
    </g>
  </g>
</svg>